<svg xmlns="http://www.w3.org/2000/svg" viewBox="0 0 330.97 223.5"><g id="a35ee449-863d-4258-b0dc-c9578cbe1a9a" data-name="Layer 2"><g id="f8e97798-cd02-4554-9afa-a6de591056c0" data-name="Layer 1"><path d="M320.61,0H10.36A10.37,10.37,0,0,0,0,10.36V213.14A10.37,10.37,0,0,0,10.36,223.5H320.61A10.37,10.37,0,0,0,331,213.14V10.36A10.37,10.37,0,0,0,320.61,0ZM166.76,123.62a2,2,0,0,1-2.59,0L21.23,4H306.69M10.36,4H15L164.2,128.87h0a2,2,0,0,0,2.59,0L312.85,4h7.76a6.36,6.36,0,0,1,6.29,5.48l-160.13,134a2,2,0,0,1-2.57,0L4.07,9.48A6.36,6.36,0,0,1,10.36,4ZM4.46,215.52A6.51,6.51,0,0,1,4,213.14V14.64l117.72,98.52Zm5.9,4a6.34,6.34,0,0,1-3.31-.93L124.82,115.76l39.38,33a2,2,0,0,0,2.57,0l38.8-32.46L320.63,219.47l0,0Zm314.48-1.62L208.66,113.65,327,14.64v198.5A6.34,6.34,0,0,1,324.84,217.88Z" fill="#fff"/></g></g></svg>