<?xml version="1.0" encoding="UTF-8" standalone="no"?><!DOCTYPE svg PUBLIC "-//W3C//DTD SVG 1.1//EN" "http://www.w3.org/Graphics/SVG/1.1/DTD/svg11.dtd"><svg width="100%" height="100%" viewBox="0 0 62 62" version="1.1" xmlns="http://www.w3.org/2000/svg" xmlns:xlink="http://www.w3.org/1999/xlink" xml:space="preserve" xmlns:serif="http://www.serif.com/" style="fill-rule:evenodd;clip-rule:evenodd;stroke-linecap:round;stroke-linejoin:round;stroke-miterlimit:1.5;"><g><circle cx="31.011" cy="31.016" r="29.5" style="stroke:#000;stroke-width:1.5px;"/><g><path d="M48.609,22.68c-0.411,-1.535 -1.62,-2.744 -3.155,-3.154c-2.784,-0.746 -13.943,-0.746 -13.943,-0.746c0,0 -11.16,0 -13.943,0.746c-1.535,0.41 -2.745,1.619 -3.155,3.154c-0.745,2.783 -0.745,8.59 -0.745,8.59c0,0 0,5.807 0.745,8.59c0.41,1.535 1.62,2.744 3.155,3.155c2.783,0.745 13.943,0.745 13.943,0.745c0,0 11.159,0 13.943,-0.745c1.535,-0.411 2.744,-1.62 3.155,-3.155c0.745,-2.783 0.745,-8.59 0.745,-8.59c0,0 0,-5.807 -0.745,-8.59Zm-20.667,13.943l0,-10.706l9.272,5.353l-9.272,5.353Z" style="fill:#fff;fill-rule:nonzero;"/></g></g></svg>