<?xml version="1.0" encoding="UTF-8" standalone="no"?><!DOCTYPE svg PUBLIC "-//W3C//DTD SVG 1.1//EN" "http://www.w3.org/Graphics/SVG/1.1/DTD/svg11.dtd"><svg width="100%" height="100%" viewBox="0 0 63 62" version="1.1" xmlns="http://www.w3.org/2000/svg" xmlns:xlink="http://www.w3.org/1999/xlink" xml:space="preserve" xmlns:serif="http://www.serif.com/" style="fill-rule:evenodd;clip-rule:evenodd;stroke-linecap:round;stroke-linejoin:round;stroke-miterlimit:1.5;"><g><circle cx="30.695" cy="31.016" r="29.5" style="stroke:#000;stroke-width:1.5px;"/><g><path d="M25.557,46.399c14.041,0 21.719,-11.632 21.719,-21.719c0,-0.33 -0.007,-0.659 -0.022,-0.986c1.49,-1.078 2.786,-2.422 3.808,-3.953c-1.368,0.608 -2.84,1.017 -4.384,1.202c1.576,-0.945 2.786,-2.44 3.357,-4.222c-1.475,0.874 -3.108,1.51 -4.847,1.852c-1.393,-1.483 -3.377,-2.411 -5.572,-2.411c-4.216,0 -7.634,3.418 -7.634,7.632c0,0.599 0.067,1.182 0.198,1.741c-6.344,-0.319 -11.969,-3.357 -15.734,-7.975c-0.656,1.127 -1.034,2.438 -1.034,3.836c0,2.649 1.348,4.986 3.397,6.354c-1.252,-0.039 -2.428,-0.383 -3.457,-0.955c-0.002,0.032 -0.002,0.064 -0.002,0.097c0,3.698 2.632,6.784 6.124,7.484c-0.641,0.174 -1.316,0.268 -2.012,0.268c-0.492,0 -0.97,-0.048 -1.435,-0.137c0.972,3.032 3.79,5.239 7.131,5.301c-2.613,2.048 -5.904,3.268 -9.481,3.268c-0.615,0 -1.223,-0.035 -1.82,-0.106c3.378,2.165 7.389,3.429 11.7,3.429Z" style="fill:#fff;fill-rule:nonzero;"/></g></g></svg>