<?xml version="1.0" encoding="UTF-8" standalone="no"?><!DOCTYPE svg PUBLIC "-//W3C//DTD SVG 1.1//EN" "http://www.w3.org/Graphics/SVG/1.1/DTD/svg11.dtd"><svg width="100%" height="100%" viewBox="0 0 62 62" version="1.1" xmlns="http://www.w3.org/2000/svg" xmlns:xlink="http://www.w3.org/1999/xlink" xml:space="preserve" xmlns:serif="http://www.serif.com/" style="fill-rule:evenodd;clip-rule:evenodd;stroke-linecap:round;stroke-linejoin:round;stroke-miterlimit:1.5;"><g><circle cx="31.011" cy="31.016" r="29.5" style="stroke:#000;stroke-width:1.5px;"/><clipPath id="_clip1"><rect id="flogo-HexRBG-Wht-512" x="13.991" y="13.917" width="34.04" height="34.04"/></clipPath><g clip-path="url(#_clip1)"><path d="M46.152,13.917l-30.282,0c-1.031,0 -1.879,0.848 -1.879,1.879l0,30.282c0,1.03 0.848,1.879 1.879,1.879l16.304,0l0,-13.164l-4.421,0l0,-5.153l4.421,0l0,-3.789c0,-4.397 2.686,-6.791 6.607,-6.791c1.879,0 3.494,0.14 3.964,0.199l0,4.597l-2.713,0c-2.127,0 -2.539,1.013 -2.539,2.501l0,3.283l5.102,0l-0.665,5.153l-4.437,0l0,13.164l8.659,0c1.031,0 1.879,-0.849 1.879,-1.879l0,-30.282c0,-1.031 -0.848,-1.879 -1.879,-1.879Z" style="fill:#fff;fill-rule:nonzero;"/></g></g></svg>