<svg viewBox="0 0 993 454" xmlns="http://www.w3.org/2000/svg" fill-rule="evenodd" clip-rule="evenodd" stroke-linejoin="round" stroke-miterlimit="1.414"><path d="M105.706 235.765h6.827l13.586 47.922 19.064-47.922h1.379l18.843 47.922 13.817-47.922h6.776l-19.109 66.504h-1.235l-19.734-50.318-20.118 50.318h-1.241l-18.855-66.504zM241.338 249.895l-11.396 24.073h22.736l-11.34-24.073zm.838-14.13l31.014 66.504h-7.179l-10.46-21.882h-28.649l-10.359 21.882h-7.415l31.421-66.504h1.627zM303.14 235.765h7.773l15.922 25.878 16.016-25.878h7.669l-19.837 32.133 21.147 34.371h-7.77l-17.269-28.066-17.323 28.066h-7.774l21.244-34.327-19.798-32.177zM393.576 235.765h33.318v6.51h-26.672v20.844h26.672v6.509h-26.672v32.641h-6.646v-66.504zM473.652 193.133h6.646v102.716h25.587v6.42h-32.233V193.133zM574.307 240.556c-4.922 0-9.586 1.283-13.993 3.847-4.407 2.566-7.85 6.019-10.324 10.361-2.475 4.345-3.713 9.186-3.713 14.523 0 7.905 2.739 14.578 8.218 20.023 5.479 5.443 12.083 8.167 19.812 8.167 5.161 0 9.938-1.254 14.33-3.757 4.394-2.503 7.819-5.926 10.28-10.268 2.46-4.345 3.691-9.17 3.691-14.48 0-5.278-1.231-10.053-3.691-14.319-2.461-4.27-5.925-7.684-10.393-10.25-4.467-2.564-9.206-3.847-14.217-3.847m-.294-6.463c10.071 0 18.501 3.36 25.286 10.081 6.786 6.722 10.181 14.995 10.181 24.819 0 9.737-3.386 17.994-10.157 24.776s-15.027 10.172-24.768 10.172c-9.862 0-18.185-3.375-24.972-10.126-6.785-6.752-10.178-14.919-10.178-24.505 0-6.389 1.546-12.311 4.636-17.766 3.092-5.455 7.306-9.726 12.644-12.817 5.339-3.089 11.114-4.634 17.328-4.634M638.508 235.765h6.827l13.586 47.922 19.064-47.922h1.379l18.843 47.922 13.817-47.922h6.776l-19.109 66.504h-1.235l-19.734-50.318-20.118 50.318h-1.241l-18.855-66.504zM758.037 235.765h38.112v6.51h-31.466v20.844h31.194v6.509h-31.194v26.131h31.194v6.51h-37.84v-66.504zM845.192 242.275v22.605l11.457.092c4.437 0 7.72-.423 9.849-1.265 2.128-.844 3.788-2.195 4.98-4.046 1.193-1.855 1.789-3.927 1.789-6.218 0-2.231-.602-4.258-1.81-6.08-1.208-1.825-2.792-3.127-4.755-3.912-1.964-.782-5.225-1.176-9.781-1.176h-11.729zm-6.646-6.51h13.248c7.381 0 12.385.304 15.009.906 3.947.907 7.157 2.843 9.627 5.818 2.472 2.972 3.708 6.631 3.708 10.975 0 3.624-.849 6.806-2.553 9.552-1.704 2.746-4.136 4.821-7.302 6.223-3.164 1.405-7.535 2.122-13.11 2.151l23.915 30.879h-8.222l-23.917-30.879h-3.757v30.879h-6.646v-66.504zM431.923 435.487v10.271h3.319c1.957 0 3.393-.193 4.305-.574a4.893 4.893 0 0 0 2.197-1.794c.553-.813.83-1.693.83-2.64 0-1.19-.389-2.227-1.167-3.115-.777-.885-1.847-1.492-3.207-1.819-.913-.219-2.5-.329-4.762-.329h-1.515zm0-11.271v8.577h1.533c1.861 0 3.229-.173 4.105-.519.875-.346 1.569-.891 2.081-1.639a4.31 4.31 0 0 0 .765-2.486c0-1.225-.428-2.186-1.287-2.885-.856-.698-2.222-1.048-4.095-1.048h-3.102zm-2.622-2.622h5.28c2.124 0 3.756.253 4.898.757a5.995 5.995 0 0 1 2.704 2.322c.661 1.043.992 2.203.992 3.476 0 1.191-.29 2.274-.87 3.251-.579.978-1.431 1.77-2.554 2.377 1.391.473 2.462 1.028 3.212 1.665a6.66 6.66 0 0 1 1.753 2.313c.417.904.626 1.884.626 2.94 0 2.148-.786 3.967-2.358 5.453-1.573 1.487-3.681 2.231-6.328 2.231h-7.355v-26.785zM456.072 424.216v9.104l4.614.037c1.788 0 3.11-.169 3.967-.509.857-.34 1.526-.883 2.007-1.63a4.54 4.54 0 0 0 .72-2.505c0-.897-.244-1.713-.73-2.448a4.064 4.064 0 0 0-1.915-1.575c-.79-.316-2.103-.474-3.939-.474h-4.724zm-2.676-2.622h5.335c2.973 0 4.989.122 6.044.365 1.591.365 2.884 1.146 3.879 2.343.995 1.197 1.493 2.671 1.493 4.421 0 1.458-.343 2.741-1.028 3.847-.687 1.106-1.666 1.941-2.941 2.506-1.275.566-3.035.855-5.28.866l9.631 12.436h-3.311l-9.632-12.436h-1.514v12.436h-2.676v-26.784z" fill-rule="nonzero"/><path d="M478.11 421.594h2.677v26.784h-2.677z"/><path d="M492.1 445.848h3.096c3.702 0 6.268-.23 7.702-.691 2.015-.656 3.598-1.834 4.752-3.539 1.152-1.705 1.729-3.787 1.729-6.249 0-2.584-.625-4.791-1.875-6.623-1.251-1.831-2.993-3.086-5.225-3.765-1.676-.509-4.438-.765-8.284-.765H492.1v21.632zm-2.567 2.53v-26.784h5.553c4.005 0 6.913.323 8.722.966 2.598.91 4.628 2.488 6.091 4.734 1.462 2.245 2.193 4.922 2.193 8.03 0 2.682-.58 5.043-1.738 7.083-1.159 2.039-2.665 3.545-4.516 4.515-1.851.972-4.446 1.456-7.783 1.456h-8.522zM530.497 427.285l-4.59 9.694h9.157l-4.567-9.694zm.338-5.691l12.491 26.784h-2.891l-4.212-8.813h-11.539l-4.172 8.813h-2.988l12.656-26.784h.655zM550.088 421.594h2.677v24.199h10.305v2.585h-12.982v-26.784zM569.23 157.983v3.293h415.603v209.876H7.798V161.276h376.986v-3.293H4.504v216.463h983.622V157.983H569.23z" fill-rule="nonzero"/><path d="M474.115 235.227c-.032-.86-.037-2.838.516-4.207.549-1.357.124-2.991.092-3.915-.023-.676-.044-1.26.167-1.876.42-1.228.649-1.597.719-3.18.051-1.157.105-2.351.194-3.025.321.256.938 1.01 1.443 1.802l.22.343 2.052-.946c-.271 1.068-.549 2.775-.064 4.169.472 1.358.287 3.525.139 5.267-.095 1.115-.177 2.078-.082 2.687.157.991.279 2.209.341 2.881h-5.737z" fill-rule="nonzero"/><path d="M413.867 130.405c-1.865 0-3.498.817-4.854 2.429l-.299.351.121.448c.405 1.496 1.527 2.366 3.158 2.451l.264.007c.282 0 .575-.023.876-.067 1.853-.28 3.239-1.648 4.007-3.956l.265-.794-.777-.307c-.828-.325-1.644-.512-2.424-.554a6.366 6.366 0 0 0-.337-.008m-6.532 8.936l.651 1.052c.119.194.221.401.315.593.291.586.59 1.19 1.274 1.276l.186.016c1.328 0 1.873-.908 2.199-1.452.088-.147.153-.258.226-.358l.361-.496-1.04-1.578-4.172.947zm-1.139 6.851a6.54 6.54 0 0 1-.759-.09c-.967-.173-1.552-.714-1.956-1.807-.181-.495-.105-.848.826-1.635 1.628-1.374 1.738-3.096.317-4.976-.401-.532-.57-1.035-.505-1.497.07-.492.408-.969 1.005-1.415.291-.216.633-.411.994-.617.776-.44 1.657-.939 2.14-1.779 1.347-2.35 3.408-2.831 6.085-2.831h.001c.585 0 1.141-.068 1.769-.208.846-.189 1.692-.389 2.536-.588 1.465-.344 2.785-.655 4.114-.922a6.079 6.079 0 0 1 1.201-.131l.244.007c.753.04 1.446.268 2.121.699 1.185.761 2.973 1.794 4.8 1.983.391.041.781.072 1.171.101 1.046.078 2.031.154 2.989.44.248.074.518.118.827.133l.304.008c.176 0 .996-.025.996-.025l1.986.027c1.408.02 2.816.039 4.245.076a.637.637 0 0 1 .241.055c.327.317.709.581 1.15.791l-.04.018a8.687 8.687 0 0 0-.728.371c-.227.125-.568.312-.692.312a59.71 59.71 0 0 1-5.814-.644c-.233-.038-.463-.099-.693-.159-.441-.116-.853-.223-1.301-.248l-.169-.005a2.7 2.7 0 0 0-1.842.697l-.165-.037a6.893 6.893 0 0 0-.566-.115c-.633-.089-1.268-.2-1.903-.311-1.233-.214-2.487-.434-3.749-.499-.261-.014-.521-.02-.782-.02-.691.001-1.365.092-2.017.179-.646.089-1.245.169-1.844.169a5.886 5.886 0 0 1-1.011-.085h-.011c-.474 0-.728.233-.88.375l-.484.371s.13 1.173.146 1.357c.164 1.875-.222 2.383-1.968 2.589-1.566.187-2.553 1.093-2.855 2.622-.223 1.122-.876 1.932-2.056 2.547l-.207.104c-.405.198-.961.471-1.234 1.009-.392.781-1.032.875-2.298.891l-.542.006-.239.488c-.907 1.854-1.693 2.226-2.664 2.226l-.234-.007zm5.875-56.961c-.157 1.236-.014 2.043.465 2.617.394.469.959.717 1.727.757l.23.007c.333 0 .711-.035 1.151-.106l1.829-.293-5.19-4.653-.212 1.671zm14.481 3.347c.303.014.691.129 1.18.274 2.844.833 5.183 1.589 7.261 3.112l.692.491 1.12-1.41-.103-.42a14.379 14.379 0 0 1-.129-.574c-.123-.579-.236-1.116-.448-1.644-.513-1.27-1.14-2.13-2.536-2.202l-.211-.005c-.295 0-.634.028-1.05.093a3.462 3.462 0 0 1-.489.037c-.878-.042-1.468-.39-1.897-1.036-1.363-2.055-2.755-4.296-4.379-7.055-.763-1.301-1.418-2.699-2.05-4.051-.737-1.576-2.05-2.426-3.906-2.522a73.756 73.756 0 0 0-1.014-.026c-.295-.006-.589-.011-.883-.027-.913-.049-1.876-.178-2.735-.788-.211-.15-.481-.233-.803-.25h-.022c-.453 0-1.282.074-1.631.674-.358.62-.409 1.545-.121 2.199.785 1.769 2.076 3.338 3.837 4.662.877.659 1.254 1.254 1.302 2.05.035.614.205 1.083.505 1.389.93.961 1.071 1.836.472 2.928-.176.318-.305.958.07 1.414l.723.889c.928 1.143 1.887 2.323 2.99 3.382.13.121.354.267.699.285h.003c.804 0 2.127-.603 2.623-1.305.352-.498.615-.567.847-.567l.083.003zm-8.761 2.235c-.346 1.663.246 2.668 1.808 3.07l.89.229.193-.899c.306-1.418-.205-2.35-1.656-3.024l-1.01-.466-.225 1.09zm-8.241-.459c-.454 0-.919.115-1.621.291l-.708.178.042.728c.087 1.605 1.038 2.636 2.607 2.829.063.008.195.015.198.015 1.611 0 1.962-1.35 2.13-1.998l.228-.845-.6-.337c-.98-.548-1.471-.823-2.141-.858l-.135-.003zm20.291 1.719c-1.672 1.521-.461 2.979.12 3.683 1.248 1.509 2.942 2.396 4.771 2.493.111.004.221.008.33.008a6.79 6.79 0 0 0 2.363-.436l1.594-.595-1.402-.962a33.454 33.454 0 0 1-1.863-1.406c-1.611-1.281-3.076-2.446-5.091-2.984l-.466-.126-.356.325zm47.77 43.211a13.63 13.63 0 0 1-.582 1.233 448.49 448.49 0 0 1-1.332 2.451l-.184.338 1.927.039c1.987 0 2.986-.381 3.294-2.544.261-1.81.222-3.622.16-4.998-.087-1.93-.1-3.975.74-5.877.232-.525.216-1.093.205-1.551-.009-.31-.017-.629.055-.795.435-.994.767-2.027 1.087-3.028.596-1.849 1.158-3.596 2.293-5.029 1.518-1.916 2.482-4.065 3.265-5.93.245-.582.329-1.178.409-1.755.032-.239.065-.465.108-.69l.125-.66-1.748-.862-.445.406c-.115.104-.246.204-.378.305-.448.336-.917.69-1.179 1.245-1.081 2.296-2.692 4.436-5.069 6.736-.33.318-.605.769-.775 1.267l-.499 1.45c-.546 1.571-1.105 3.178-1.517 4.811-.313 1.233-.426 2.632-.335 4.16.14 2.367.439 4.694.74 6.858a4.151 4.151 0 0 1-.092 1.586 3.927 3.927 0 0 0-.006-.594 190.999 190.999 0 0 0-.408-4.831c-.032-.325-.161-.581-.31-.876a12.028 12.028 0 0 1-.257-.537l-.808-1.819-.806 1.822c-.125.285-.257.539-.377.769-.345.658-.612 1.166-.645 1.781-.087 1.638.02 3.295.128 4.719.039.541.395.917.654 1.193.071.074.14.145.194.218l.619.83.722-.737.223-.217c.308-.292.58-.548.804-.887m-22.394 6.01c-.878 0-1.699.206-2.384.409-.72.214-1.475.314-2.274.42-.371.051-.73.098-1.087.158l-3.355.543.185.901c.38 1.863 1.711 1.956 2.425 2.008 1.099.079 2.198.14 3.295.201l.255.015c1.648.092 3.351.186 5.016.335a19.49 19.49 0 0 1 3.918.758c.805.244 1.603.387 2.371.428.152.008.305.013.457.013 1.707 0 3.327-.51 4.954-1.556l.89-.615-.76-.766c-1.148-1.162-2.139-2.166-4.134-2.329-.582-.047-1.158-.149-1.767-.256-.674-.119-1.438-.253-2.206-.294a8.588 8.588 0 0 0-.451-.011c-.798 0-1.519.114-2.209.353l-.198.014a1.599 1.599 0 0 1-.602-.161 4.936 4.936 0 0 0-2.053-.561l-.286-.007zm22.402 77.132c-1.231-.811 2.03-11.27 2.19-12.601.032-.244.059-.488.079-.728.063-.712.246-1.417.44-2.163.388-1.497.789-3.044.28-4.819-.08-.279.052-.77.179-1.241.107-.4.217-.813.257-1.238.091-.993.096-1.97.02-2.912-.037-.467-.133-.917-.226-1.35-.095-.43-.179-.819-.206-1.199l-.115-1.837c-.179-2.97-.361-5.994-1.105-8.959l-.13-.5c-.39-1.493-.755-2.9.093-3.863l.378-.427-.238-.522a19.322 19.322 0 0 0-.499-.998c-.293-.553-.563-1.063-.62-1.502-.058-.459.068-1.024.201-1.624.074-.324.147-.652.201-.991l.087-.543-.45-.317c-.811-.574-1.201-1.468-1.262-2.903-.02-.43-.019-.866-.018-1.304 0-1.239.001-2.518-.398-3.723-.845-2.54-1.186-4.774-1.072-7.029.197-3.904-1.644-4.291-4.475-4.44l-.221-.008c-.319 0-.602.071-.852.134a2.35 2.35 0 0 1-.418.083c-.144.004-.294.012-.447.022-.199.01-.368.022-.533.022l-.174-.005a1.076 1.076 0 0 1-.393-.075 4.587 4.587 0 0 0-1.735-.439l-.26-.006c-.791 0-1.56.191-2.273.401-.57.166-1.011.242-1.387.242-.814-.039-1.284-.339-1.714-1.008-.503-.776-1.251-1.229-2.108-1.276h-.02c-.634 0-1.15.153-1.619.44-1.035.635-2.112.943-3.293.943-.123 0-.245-.003-.369-.01-.839-.043-1.747-.235-2.775-.586-.56-.192-1.117-.24-1.656-.289a9.37 9.37 0 0 1-.833-.094l-1.35-.223c-1.377-.224-2.937-.479-4.377-.848a5.35 5.35 0 0 0-1.034-.174l-.203-.005c-.223 0-.451.018-.705.055-.939.141-1.962.208-3.131.208-.424 0-.869-.008-1.34-.025-.773-.042-.837-.513-.857-.666-.035-.258-.06-.445.812-.745a66.143 66.143 0 0 1 1.75-.564c1.19-.372 2.387-.746 3.532-1.25.883-.389 1.606-.562 2.346-.562l.246.007c.113.007.23.015.345.031.132.016.258.027.383.034l.262.007c1.005 0 1.946-.304 2.876-.926 1.397-.94 3.064-1.136 4.217-1.136a11.356 11.356 0 0 1 1.325.081c.627.074 1.251.124 1.875.156.735.038 1.47.051 2.203.051.995 0 1.984-.025 2.954-.051l.224-.005c.758-.019 1.516-.039 2.274-.044.548-.004.991-.278 1.345-.498.135-.083.234-.144.332-.191l.944-.456-.608-.852c-.071-.1-.134-.21-.199-.318-.252-.431-.524-.897-.994-1.191-.995-.621-2.01-1.213-3.024-1.803-1.175-.684-2.3-1.339-3.373-2.024-2.457-1.565-4.585-2.371-6.904-2.612a14.347 14.347 0 0 0-.754-.055l-.441-.021c-1.815-.097-2.688-.31-2.852-1.844l-.036-.34c.547.129 1.096.189 1.589.243.302.033.599.067.892.112l.813.121c1.199.172 2.438.352 3.517.773 2.194.863 4.342 1.994 6.422 3.088 1.264.667 2.592 1.412 3.73 2.343.885.727 1.738 1.537 2.564 2.32.822.781 1.619 1.537 2.454 2.234.396.33.926.424 1.302.443l.187.005c.398 0 .806-.064 1.149-.183.526-.181.913-.531 1.122-1.009.238-.545.211-1.204-.076-1.857-.295-.672-.566-1.358-.838-2.045-.658-1.668-1.331-3.371-2.338-4.875-.967-1.447-1.441-3.041-1.942-4.727-.248-.838-.529-1.789-.883-2.692-1.029-2.632-1.478-3.653-3.33-5.817-1.268-1.482-2.464-3.078-3.62-4.62l-.536-.714c-.351-.467-.923-1.093-1.845-1.143h-.021c-.462 0-.835.087-1.245.265-.574.245-1.32.308-2.041.369 0 0-.389.031-.469.031-.626-.03-.945-.218-1.154-.616-.103-.192-.13-.245.314-.814.112-.145.223-.29.32-.435.206-.309.193-.625.181-.88l.019-.379-.276-.277c-1.3-1.309-2.024-1.865-3.148-1.926l-.193-.004c-.543 0-1.133.118-1.95.281l-.236.046c-.824.163-1.797.331-2.763.331-.135 0-.269-.004-.403-.01-.951-.052-1.755-.28-2.456-.701-1.613-.962-3.33-1.401-4.992-1.826a53.04 53.04 0 0 1-1.445-.383l-.233-.067c-1.167-.329-2.208-.624-3.027-1.137.169.049.32.067.43.074h.019c.534 0 1.012-.127 1.574-.385l1.49-.685-3.892-2.42-.997 1.591.094.367c.023.088.049.173.076.253a4.169 4.169 0 0 1-.451-1.122c-.152-.601-.709-1.049-1.162-1.212l-.403-.145c-1.632-.593-3.32-1.207-5.039-1.727a32.592 32.592 0 0 0-2.312-.583c-.726-.166-1.456-.33-2.15-.54-.821-.246-1.793-.503-2.78-.555a7.031 7.031 0 0 0-.353-.01c-1.35 0-2.508.418-3.542 1.273-.237.197-.46.281-.742.281a3.13 3.13 0 0 1-.731-.122c-1.632-.453-3.039-1.354-4.565-2.925-2.058-2.119-2.113-2.632-.541-4.979.859-1.287.393-2.224-.175-2.972-.292-.382-.435-.951-.421-1.062.248-.453.491-.976.734-1.501.803-1.73 1.557-3.353 3.221-4.301.708-.404 1.226-.989 1.726-1.554.19-.216.38-.429.574-.622l.436-.429-.305-.682c-.798-1.777-1.427-3.181-.87-4.731.512-1.433.936-1.955 1.622-1.991a11.004 11.004 0 0 1 1.14.003c.853.044 1.746.175 2.609.3l.848.123c.382.052.765.158 1.169.268.506.142 1.037.288 1.59.353 2.61.302 4.55.968 5.541 3.231.196.444.465.818.704 1.146.185.26.361.503.485.753a4.969 4.969 0 0 0 3.75 2.754c.941.147 1.521.518 2.07 1.325.289.425.567.859.843 1.294a40.58 40.58 0 0 0 1.224 1.843c.367.508.71 1.03 1.054 1.551.817 1.237 1.659 2.516 2.813 3.649.631.622 1.335 1.158 2.016 1.673 1.375 1.043 2.661 2.018 3.289 3.586.308.769 1.009 1.253 1.877 1.299h.022c.621 0 1.12-.147 1.536-.413.393-.248.732-.375 1.008-.375.431.02.823.34 1.31 1.031.372.528.936.863 1.39 1.134l.269.165c.619.388.924.833 1.02 1.488.039.277.094.55.155.823-.703-.863-1.49-1.639-2.256-2.395l-.35-.347c-.478-.476-1.052-.746-1.658-.778h-.011c-.86 0-1.562.364-2.094 1.025-.501.621-1.126 1.874.317 3.292.975.964 1.669 1.741 1.702 2.962.027.945 1.082 1.869 1.828 2.118.746.247 1.509.324 2.317.408.336.033.683.068 1.046.119l.838.115.146-.81c.547.633 1.25 1.131 2.099 1.483.564.233.724.523.659 1.197-.063.678.057 1.734.605 2.483 1.183 1.623 2.537 3.326 4.137 5.21l.413.483c1.792 2.102 3.64 4.27 4.695 6.821.625 1.515 1.196 3.135 1.7 4.563.392 1.106.731 2.062 1.089 3.009.061.161.117.323.174.486.407 1.162.913 2.605 2.684 3.321l.964.39.524-2.333c.202-.912.393-1.775.601-2.63.244-.998.509-2.058.839-3.09.261-.824.614-1.661.926-2.38l.379-.881c.538-1.254 1.065-2.485 1.653-3.642.225-.443.505-.864.804-1.312.459-.687.927-1.388 1.221-2.203.37-1.012.846-1.724 1.544-2.308.634-.531 1.072-1.012 1.377-1.515 1.144-1.868 2.165-3.56 3.102-5.344.711-1.346 1.98-2.066 3.326-2.828 0 0 .648-.369.878-.506l.179-.004c.1.007.18.027.23.039-.045.015.008.243-.005.632-.007.26-.06.535-.117.828-.108.556-.211 1.091-.141 1.673.377 3.148-.146 5.75-1.598 7.956-.196.298-.397.593-.596.888-1.281 1.885-2.604 3.833-2.808 6.412-.009.1-.138.325-.231.491-.168.295-.349.612-.437.996-.16.695-.341 1.387-.524 2.083-.495 1.891-1.006 3.839-1.062 5.822-.104 3.537-.332 6.256-.742 8.822-.235 1.468-.916 2.02-2.259 2.642a3.438 3.438 0 0 1-1.182.31c-1.595.106-2.576 1.225-2.5 2.851.064 1.333.198 2.887.711 4.335.548 1.539.943 2.934.249 4.446-.415.908-.189 1.976-.11 2.281l.054.208c.738 2.798 1.5 5.689 1.588 8.615.012.387.089.747.166 1.094l.541 2.83c.375 1.977.749 3.954 1.117 5.932.064.345.104.726.129 1.205.031.578.039 1.16.049 1.743.034 2.197.069 4.404 1.031 6.55 0 .004.01.065.009.288l.005.263.113 2.535c.07 1.638.141 3.275.24 4.913l.065 1.034c.246 3.832.275 11.762-.654 15.477-.106.422-.966 4.356-.928 4.642l.361-7.966c.016.508.047 1.018.08 1.524.057.907-1.324 13.956-1.37 14.799l-1.857-2.787zm-.016 8.437c-.365-.049-.423-.059-.416-.785.01-1.078.023-2.3.09-3.479l.02-.442c.043-1.031.077-1.843.736-2.455.359-.332.765-1.125.492-1.772-.319-.763-.163-1.586 0-2.456.104-.553.212-1.128.217-1.735.013-1.713.55-2.631 1.913-3.272l-.25-.397.364.375c-.301 2.717-.608 5.489-1.354 8.046a23.437 23.437 0 0 0-.962 6.972c.003.267-.017.489-.059.678-.158.723-.593.723-.736.723l-.055-.001z" fill-rule="nonzero"/><path d="M501.366 123.216c-.952 0-1.958.149-2.986.448-2.028.585-3.086 1.858-3.146 3.783-.037 1.252-.628 2.145-1.807 2.734-.792.394-1.457.954-2.1 1.497l-.53.439c-2.201 1.78-2.768 4.11-1.641 6.742.145.34.297.679.449 1.018l.104.229c.375.833.765 1.695 1.065 2.553.274.783.809 1.828 2.286 1.873l.231.005c2.179.07 4.05 1.033 5.592 1.966.414.251.86.333 1.294.412.191.036.376.07.57.118l1.293.326-.205-1.317c-.032-.21-.053-.369-.068-.496-.031-.257-.054-.456-.138-.679-.743-1.956-1.832-3.4-3.333-4.412-.327-.223-.434-.388-.443-.444-.002-.007-.002-.059.08-.178.11-.158.205-.19.315-.19a1.1 1.1 0 0 1 .506.163 6.34 6.34 0 0 1 1.638 1.328c.498.573.967 1.2 1.42 1.81.387.516.753 1.008 1.136 1.48.271.334.592.593.962.893.195.158.419.34.682.567l1.404 1.212.285-9.107c.148 1.319.493 4.506.493 4.506.058.524.103 1.049.148 1.574l.121 1.366 1.766.301.311-.509c.058-.095.124-.186.192-.278.243-.327.522-.702.613-1.184a843.64 843.64 0 0 0 2.004-11.069c.427-2.433-.482-4.438-2.703-5.96-.372-.253-.749-.501-1.125-.749-.539-.354-1.078-.706-1.598-1.083-1.473-1.061-3.105-1.628-4.854-1.683l-.283-.005zm25.099 18.6c-.793 1.214-1.839 2.186-3.18 2.955l-.242.136c-1.171.664-2.625 1.488-2.906 3.346l-.054.369 1.086 1.431.669-.37c.319-.176.642-.344.966-.51l.179-.092c.902-.459 1.834-.936 2.684-1.574 1.5-1.125 2.9-1.676 4.542-1.79 1.89-.133 3.933-.54 6.429-1.285 1.345-.4 1.832-1.158 2.003-1.726.178-.597.185-1.558-.801-2.739-.188-.226-.396-.436-.603-.645l-.339-.349c-1.303-1.408-1.963-2.58-2.204-3.924-.181-1.004-.508-1.818-.971-2.417-1.252-1.626-2.64-3.309-4.502-5.457-1.132-1.309-2.595-2.313-4.475-3.074a11.15 11.15 0 0 0-3.832-.83l-.32-.005c-2.719 0-5.262 1.078-7.355 3.118l-.403.392.184.532c.754 2.157.367 4.315-.108 6.142-.637 2.434-.996 4.92-1.344 7.325l-.15 1.019c-.447 3.029.632 5.433 3.204 7.143l.483.322.489-.321c2.017-1.324 1.069-3.05.665-3.788l-.232-.419c-.354-.629-.944-1.675-.828-2.115.341-1.305.987-2.54 1.674-3.844l.056-.111c.526 1.09 1.654 1.614 2.583 2.047.176.081.352.163.523.248.33.163.643.387.977.625l.394.277c.844.576 1.634.868 2.415.892h.007c.936 0 1.767-.306 2.637-.934m-15.84 6.306c-.715 0-1.349.281-1.78.79l-.625.72c-1.206 1.383-2.452 2.81-2.945 4.532-.647 2.264.171 4.784 2.248 6.913l.766.787.602-.916c.255-.383.481-.745.695-1.086.446-.71.807-1.285 1.223-1.786.385-.465.851-.9 1.302-1.321.33-.308.66-.617.974-.941.61-.641 1.16-1.287 1.634-1.922.845-1.13.784-2.411-.159-3.343-.636-.633-1.296-1.285-2.09-1.829a3.37 3.37 0 0 0-1.757-.596l-.088-.002zm.051 15.952c-.771 0-1.769.34-2.137 1.959l-.056.238.136.374c.247.464.478.934.712 1.41.548 1.11 1.105 2.238 1.833 3.265.58.823 1.4 1.774 2.598 1.81h.004c.925 0 1.774-.469 2.822-1.52.546-.55 1.115-1.145 1.539-1.844.493-.814.618-1.527.387-2.177-.234-.659-.796-1.142-1.72-1.474l-4.549-1.624c-.092-.032-.183-.07-.273-.107-.28-.119-.596-.252-.966-.292-.084-.01-.33-.018-.33-.018m-22.373-17.521c-2.818 0-6.138 2.146-7.104 4.593-1.226 3.1-1.341 5.968-.354 8.766.331.935.722 1.856 1.101 2.747.351.824.713 1.678 1.017 2.524.801 2.225 2.282 3.825 4.53 4.892.338.162.679.315 1.019.467.389.175.779.349 1.163.534 1.65.799 3.371 1.714 4.664 3.308 1.654 2.037 3.58 3.083 5.889 3.195h.003c3.133 0 6.474-3.118 7.368-5.18.105-.244.329-.871.147-1.461a135.488 135.488 0 0 0-1.47-4.422c-.478-1.376-1.47-1.609-2.019-1.625h-.008c-.444 0-.845.088-1.267.257-.283.114-.57.23-.859.349.266-.173 1.326-.887 1.326-.887l-.491-1.646-.559-.079c-.197-.027-.396-.069-.596-.111-.399-.082-.791-.163-1.201-.176h-.063c-.204 0-.325.009-.444.022-1.912.24-3.904.572-5.922.986-.302.062-.537.112-.686.112-.184-.221-.308-.453.208-.748a5.056 5.056 0 0 1 1.566-.598 80.458 80.458 0 0 1 3.054-.484c.717-.107 1.435-.212 2.149-.327.592-.097 1.18-.23 1.762-.36l1.483-.324-.045-.759c-.124-2.006-1.214-2.532-2.105-2.62a14.238 14.238 0 0 0-1.078-.068l-1.046-.026-1.334-.046c-.601-.02-1.187-.045-1.745-.137-.616-.102-.582-.386-.564-.537.01-.13.054-.148.23-.148l.377.018c1.259.09 2.372.183 3.531.281l2.313.193.154-.771c.942-4.719.513-5.801-3.269-8.27-.253-.166-.524-.309-.795-.453a7.531 7.531 0 0 1-.719-.413c-.783-.538-1.637-.823-2.533-.85h-.019a5.44 5.44 0 0 0-2.069.386c-.6.238-1.172.352-1.75.352a5.374 5.374 0 0 1-1.52-.251 4.753 4.753 0 0 0-1.252-.202l-.168-.003zm2.145 28.71l-.144.05c-.533.206-1.042.644-1.403 1.203-.372.577-.006 1.093.289 1.507.103.146.192.269.271.396l.553.9 2.618-2.357-.618-.657c-.065-.07-.136-.159-.212-.253-.331-.407-.635-.783-1.138-.799l-.043-.002-.173.012zm42.273-9.116c-1.702 0-2.297.872-2.707 2.275-.248.843-.529 1.676-.836 2.59l-.621 1.864.365.383c.512.537 1.026 1.087 1.547 1.645 1.168 1.254 2.491 2.675 3.886 3.984 1.244 1.164 2.597 1.777 4.018 1.823h.019c.903 0 1.662-.161 2.41-.477 2.399-1.017 3.74-2.938 3.875-5.56.061-1.198-.218-2.382-.508-3.492-.194-.737-.435-1.474-.675-2.209-.711-2.156-1.368-4.148-.919-6.194.797-3.629.579-7.323-.667-11.289-.774-2.48-2.325-3.722-4.735-3.796l-.27-.003c-.29.002-.578.012-.867.025a18.51 18.51 0 0 1-.858.026l-.239-.004a4.297 4.297 0 0 1-.72-.075 7.91 7.91 0 0 0-1.291-.148l-.236-.003c-1.242 0-2.442.31-3.567.927a423.331 423.331 0 0 0-7.451 4.214l-3.546 2.033.353 1.846.667.059c.216.018.435.051.655.085.357.054.713.106 1.058.118h.052c.335 0 .538-.019.734-.056 1.185-.221 2.355-.543 3.485-.855l1.795-.491c.688-.194 1.397-.395 2.006-.395.667.021 1.069.231 1.426.704 1.228 1.629 2.811 1.937 4.08 2.182.253.049.513.081.771.109.443.054.858.102 1.134.247.287.152.591.543.64.757-.052.009-.217.06-.552.081-.149.011-.3.021-.451.021a2.326 2.326 0 0 1-.267-.015 8.074 8.074 0 0 0-.693-.053l-.212-.002c-1.549 0-2.876.528-4.053 1.614-.455.419-1.375 1.122-2.439 1.122a2.618 2.618 0 0 1-.596-.079c-1.377-.371-2.825-.984-4.183-1.77-1.559-.897-2.859-1.316-4.221-1.358l-.225-.004c-1.094 0-2.212.247-3.418.756l-1.331.564 1.107.927c2.055 1.724 3.829 3.211 6.155 3.533 1.398.193 2.791.257 3.97.294l2.794.072c.764.025 1.529.058 2.29.12 1.347.108 2.834.411 4.544.928 0 .023.123.249.206.403-.167.133-.276.208-.327.217a1.418 1.418 0 0 1-.216.016c-.315-.011-.572-.055-.83-.098-.341-.056-.65-.108-.957-.126l-.358-.012zm-39.358 18.374c-2.515.253-4.269 1.643-5.679 2.759-.828.657-2.078 1.644-1.651 3.394l.188.78.796-.112c2.828-.41 6.217-3.033 7.253-5.615l.543-1.352-1.45.146zm-12.798 4.758c-.476 0-.83.368-.895.441l-.267.297.018.451c.043.297.153.511.226.652l.419.919 2.565-1.217-1.124-1.038c-.147-.144-.311-.303-.548-.417l-.218-.082-.176-.006zm29.551-14.497c-.719 0-1.418.251-2.024.725-2.027 1.586-2.82 3.855-2.177 6.227.572 2.109.667 4.222.632 6.744-.04 2.85 1.083 5.203 3.432 7.192.747.63 1.563.977 2.36 1.002h.008a3.08 3.08 0 0 0 1.738-.499c1.484-.961 3.16-.969 4.934-.977l.571-.003c2.38-.026 4.704-.745 7.108-2.197 2.538-1.534 4.288-4.006 5.35-7.552.786-2.633-2.227-7.347-5.468-8.547l-1.493-.553.322 1.56c.139.671.132 1.397.125 2.037-.011 1.522-.023 3.091 1.435 4.481-.015.023-.008.365-.045.461.003-.012-.008-.017-.032-.017-.078 0-.29.05-.536.05-.693-.062-1.023-.357-1.112-.955l-.477-3.274c-.242-1.629-.748-3.693-2.526-5.207-.673-.572-1.187-.908-1.826-.926h-.002c-.846 0-1.488.518-2.248 1.198l-.438.392.775 2.222c.285.812.554 1.577.805 2.324-.169-.452-.623-1.651-.623-1.651-.187-.497-.395-1.045-.788-1.5-.309-.357-.933-.752-1.571-.773h-.015c-.149 0-.256.012-.354.035-.729.171-1.329.966-1.433 1.598-.136.83-.042 1.678.04 2.244.152 1.041-.204 1.916-1.118 2.754-.278.257-.625.575-.775.575-.018 0-.083-.006-.221-.106-.275-.2-.441-.381-.074-.901 1.244-1.758.966-3.634.719-5.289l-.04-.271c-.221-1.498-1.389-2.576-2.843-2.621l-.095-.002zm-34.168 21.335c-.372-2.078-.119-3.498.848-4.747.278-.355.612-.908.626-1.511.033-1.634.946-2.902 1.913-4.245a25.15 25.15 0 0 0 1.046-1.532c1.019-1.663 2.114-3.321 3.173-4.927a218.728 218.728 0 0 0 2.298-3.524c.632-.99 1.032-1.698.841-2.475-.181-.763-.855-1.211-1.718-1.717-2.893-1.698-3.97-4.69-5.011-7.582-.06-.166-.11-.337-.16-.506-.125-.434-.246-.851-.47-1.262-1.979-3.636-1.831-8.524.359-11.891.176-.271.348-.545.519-.819.805-1.299 1.566-2.523 2.83-3.195a10.4 10.4 0 0 1 2.593-.977c.745-.163 1.655-.453 2.106-1.242.446-.786.24-1.69.012-2.392l-.171-.523c-.359-1.096-.721-2.205-1.188-3.27-1.283-2.936 1.165-6.907 3.442-8.151 1.808-.987 2.922-2.267 3.608-4.142.786-2.147 4.092-4.738 7.02-4.738.342.006.531.024.718.053 2.695.421 4.611 1.182 6.032 2.393 1.001.856 2.007 1.29 3.078 1.323h.012c.962 0 1.81-.245 2.719-.747 1.096-.604 2.08-1.147 3.078-1.608a12.116 12.116 0 0 1 5.11-1.134l.388.006c3.542.112 6.876 1.789 9.147 4.603l.124.156c.453.565.91 1.135 1.495 1.606 2.095 1.685 3.21 4.078 4.171 6.385l.139.334c.842 2.031 1.715 4.132 3.656 5.746 1.544 1.283 1.701 2.258.68 4.175-.64 1.202-.524 2.109.403 3.128 3.265 3.589 4.593 8.617 3.641 13.794-.344 1.889.012 3.841.357 5.728l.043.243c.201 1.103.53 2.166.848 3.194.425 1.376.815 2.643.946 3.994.277 2.883-1.279 4.952-2.93 7.144-.081.106-.418.257-.619.345l-.156.069c-1.351.611-2.581 1.169-3.811 1.648-.475.19-.967.383-1.305.383a6.349 6.349 0 0 0-.801-.093h-.005c-1.697 0-2.35 1.148-2.739 2.149-.313.801-.823 1.554-1.361 2.349a32.6 32.6 0 0 0-.59.89c-.211.327-.438.647-.667.962-.43.596-.87 1.205-1.204 1.896-1.443 2.987-3.884 4.541-8.158 5.196-.75.114-1.51.192-2.269.269-2.408.241-4.799.479-7.04 1.701a2.31 2.31 0 0 1-.99.236c-.185-.005-.301-.026-.366-.055l-.867-.385c-1.545-.678-3.129-1.375-4.205-2.431-1.009-.989-1.529-2.748-1.938-4.321-.291-1.129-.37-2.324-.452-3.587a42.452 42.452 0 0 0-.136-1.718c-.133-1.329-.362-2.74-1.532-4.088l-.668-.772-.667.77c-.134.155-.268.295-.397.431-.31.327-.622.656-.86 1.068-.771 1.343-1.78 2.306-3.084 2.947-.587.287-1.016.769-1.397 1.193l-.285.312c-.248.263-.479.55-.709.84-.357.448-.693.872-1.079 1.135-1.769 1.197-2.408 2.364-4.193 3.471l-1.875 1.371c-.087.055-.726.577-.821.624-.364.176-.827 1.425-1.127 1.759-1.017 1.138-3.441 5.023-3.913 8.452-.218 1.587-3.854-.683-5.132.797l-.953-10.961z" fill-rule="nonzero"/><path d="M425.678 157.427c.625.02 1.247.057 1.858.126-.024.008.067.13.186.409l-2.044-.535zm7.39-35.079a57.17 57.17 0 0 0-.037 2.241c.003.516.024 1.031.043 1.545.032.838.063 1.626.042 2.394-.022.897.266 1.548.882 1.986.965.686 1.932 1.373 2.966 1.937.149.08.298.157.447.231.652.322 1.131.558 1.386 1.129.196.443.563.75.917 1.045.15.125.301.253.447.396l.713.693.37-.923c.036-.089.076-.17.114-.245.139-.28.279-.556.244-.898l-.029-.353c-.043-.581-.093-1.233-.426-1.774-.845-1.377-1.293-2.87-1.768-4.451l-.292-.952c-.381-1.224-1.055-2.332-1.707-3.405l-.366-.608c-.675-1.133-1.733-1.703-3.236-1.742l-.669-.015-.041 1.769zm12.337 24.189c-.02.161-.027.321-.033.475-.003.105-.009.331-.033.389-.944 1.393.186 2.359.61 2.721.385.33.801.624 1.203.906l.956.688.933-.854-.041-.336c-.194-1.705-.558-3.457-2.637-4.501l-.84-.419-.118.931zm-29.199 4.396c-.207 0-.418.02-.633.04-.177.017-.356.036-.541.041l-.924.023 1.522 4.181 1.425-.139c.94-.087 1.913-.178 2.95-.317.408-.091.799-.434.969-.711a.773.773 0 0 0 .102-.62c-.105-.397-.442-.924-.933-1.14-1.03-.454-2.139-.922-3.262-1.266a2.236 2.236 0 0 0-.675-.092m35.558-1.175c-.216 2.06 1.294 5.027 2.989 5.88l.69.349.241-.736c.612-1.857-.81-4.774-2.925-6.001l-.889-.513-.106 1.021zm-27.188-1.204c.06 0 .114.01.206.121.1.123.187.23-.132.647-.194.252-.405.493-.635.756l-1.056 1.222.935.316c.233.078.466.149.696.216.476.144.902.273 1.277.459 1.153.57 2.29 1.16 3.428 1.753.81.421 1.619.842 2.433 1.254.65.33 1.244.616 1.902.769.135.031.273.047.423.047.255 0 .508-.045.754-.09.154-.03.267-.05.38-.064l.64-.069-.049-.641c-.107-1.427-1.108-1.772-1.706-1.979-.131-.045-.258-.087-.373-.143-.435-.212-.892-.358-1.335-.498-.403-.131-.766-.247-1.107-.405-.774-.363-1.602-.816-2.59-1.413.503.19 1.003.406 1.491.617l.822.354c.708.295 1.419.585 2.131.874.329.134.631.199.925.199.134 0 .268-.015.397-.042a1.94 1.94 0 0 0 .875-.465.522.522 0 0 1 .223-.129l.041-.001c.247 0 .473.079.675.154 1.298.484 2.63.912 4.042 1.367l4.033 1.32-1.495-1.787c-.815-.977-1.743-1.534-2.919-1.757-1.019-.192-1.938-.623-2.912-1.079-.479-.228-.956-.45-1.443-.645-.057-.022-.172-.138-.257-.222-.146-.145-.328-.325-.569-.455a28.922 28.922 0 0 0-2.427-1.155c-.796-.332-.763-.435-.708-.608.08-.251.2-.279.265-.293a1.58 1.58 0 0 1 .69.111c.738.278 1.481.595 2.199.903.744.317 1.411.604 2.089.865 1.933.753 3.909 1.481 5.822 2.185l.854.316c.226.084.445.108.64.129l.734.113.215-.45c.635-1.336-.152-1.976-.679-2.239l-.389-.189c-.564-.279-1.129-.558-1.683-.859l-.18-.099c-.389-.207-.756-.404-1.023-.658-.667-.634-1.375-.954-2.229-1.011-.664-.04-1.12-.431-1.479-1.262-.165-.382.016-.915.219-1.048a.77.77 0 0 1 .259-.114c.022-.002.041-.002.062-.002.272 0 .462.088.664.25.068.057.134.119.198.181.276.266.639.615 1.153.696.169.699.661 1.054 1.463 1.054l.355-.015-.212.818.796.288.699.2.182-.687c.034-.09.145-.383-.024-.686-.163-.292-.447-.361-.599-.399 0 0-1.735-1.81-1.754-1.834a.987.987 0 0 1 .249-.091l.176-.016c.076.007.185.043.312.085.255.087.599.203 1.042.203l1.185-.043-.528-.946-.169-.318a7.42 7.42 0 0 0-.448-.776 321.693 321.693 0 0 0-3.256-4.696c-1.013-1.429-2.322-3.007-4.338-3.884-.544-.234-1.049-.603-1.584-.995a27.274 27.274 0 0 0-.762-.547c-1.057-.71-2.085-1.056-3.148-1.056-.36 0-.727.042-1.093.123-.216.05-.433.112-.654.189-.256.09-.52.183-.77.238-.152.034-.281.05-.392.05a8.254 8.254 0 0 0-2.808.144c-1.753.389-3.302 1.283-4.801 2.144l-.413.237c-1.305.746-2.599 1.255-3.956 1.557a11.51 11.51 0 0 1-.62.122l-.38.074c-1.779.394-2.667 1.324-3.166 3.316-.657 2.625-.159 5.112 1.522 7.607.465.69 1.115 1.242 1.69 1.691 2.114 1.648 4.55 2.692 7.243 3.1.073.011.144.016.214.016.124 0 .245-.015.37-.03l.911-.082-.071-.892a3.215 3.215 0 0 0-.068-.58c-.045-.189-.034-.282-.027-.303 0 .002 0 .002.002.002.008 0 .063-.029.172-.052l.358-.063c.329-.074.626-.203.912-.328l.274-.121a2.6 2.6 0 0 1 .367-.124l.13-.017zm18.593 7.56a1.77 1.77 0 0 0-.408.161l-.841.319 1.305 2.57.645-.778c.29-.35.659-.878.531-1.442-.055-.238-.218-.565-.686-.781a.812.812 0 0 0-.339-.072h-.026l-.181.023zm6.057 4.251c.053 0 .184.034.254.051.172.044.385.099.626.099.106 0 .211-.012.31-.032.463-.106.821-.421 1.093-.967l.329-.656-.686-.265c-.791-.3-1.218-.87-1.269-1.695-.128-2.051-1.237-3.163-3.296-3.305l-.888-.062.244 1.123c.044.226.091.461.166.686.131.397.268.789.405 1.185.301.856.566 1.616.789 2.368.109.372.442 1.497 1.598 1.497.103 0 .214-.008.332-.028l-.007.001zm-8.034 2.996l-.088.667 1.782.404.356-1.505-1.846-.436-.204.87zm16.289-.734a1.06 1.06 0 0 0-.236.026c-.501.113-.895.557-1.371 1.241l-.655.942 4.328.377-.513-1.054c-.296-.612-.744-1.532-1.553-1.532m-33.123-9.57a2 2 0 0 0-.426.047c-.244.052-.583.176-.802.457-.676.877-1.663 1.157-2.616 1.368l-.963.207c-.168.037-.721.172-.721.172-.519.114-1.051.171-1.617.232-.44.048-.795.087-1.146.144a3.62 3.62 0 0 0-.281.051c-1.756.39-2.917 1.736-2.954 3.429-.018.91-.359 1.31-1.4 1.639-1.519.476-3.368 2.481-3.734 4.048-.35 1.492.794 3.296 2.352 3.711.8.213 1.575.317 2.372.317.672 0 1.363-.077 2.054-.23 1.021-.227 2.045-.616 3.131-1.188.21-.111.43-.199.651-.29.292-.119.544-.223.788-.348l.275-.135c.586-.286 1.135-.554 1.596-.949 1.311-1.119 2.92-1.659 4.593-2.155a80.16 80.16 0 0 1 2.042-.568 75.47 75.47 0 0 0 2.168-.605c.345-.103.539-.354.728-.597a3.58 3.58 0 0 1 .236-.289l.777-.849-1.121-.252a3.282 3.282 0 0 1-.319-.092c-.188-.061-.359-.116-.547-.116l-.233.031-.153.055a1.115 1.115 0 0 1-.384.171 1.802 1.802 0 0 1-.391.035c-.126 0-.257-.007-.393-.015-.171-.007-.33-.015-.488-.015l-.23.006c-1.426.086-2.874.172-4.323.445-.628.139-1.073.659-1.466 1.116l-.152.178a5.117 5.117 0 0 0-.52.756 3.76 3.76 0 0 1-.378.562c-.189-1.154 1.252-3.247 2.34-3.574.711-.213 1.423-.416 2.228-.644l2.976-.855.091.277.83.06a6.9 6.9 0 0 0 .711.047c.094 0 .191-.004.286-.012.31-.025.619-.037.924-.037 1.777 0 3.477.386 4.906.761.214.056.463.116.731.116.119 0 .232-.013.339-.035.547-.121.939-.532 1.199-1.256l.322-.898-.953.008c-.184.002-.902.025-.902.025-.118 0-.228-.003-.332-.02l-.322-.043c-.667-.092-1.356-.187-1.97-.384-.431-.136-.849-.32-1.288-.512-.707-.308-1.406-.613-2.163-.756-1.225-.229-2.219-.862-3.271-1.532l-.68-.429c-.616-.375-1.132-.612-1.625-.744a1.475 1.475 0 0 0-.382-.047m52.716 25.042c-.363-.456-.725-.914-1.081-1.376-.252-.329-.498-.663-.744-.995a40.228 40.228 0 0 0-1.263-1.655c-.377-.46-.777-.904-1.174-1.343-.4-.381-.754-.723-1.107-1.063-.743-.721-1.586-1.54-2.465-2.261-.267-.218-.52-.456-.774-.693-.753-.704-1.48-1.384-2.486-1.801-.35-.145-.772-.295-1.241-.295-.161 0-.32.018-.475.051a2.64 2.64 0 0 0-.778.319c-.43.253-.802.415-1.107.483-.1.022-.192.033-.273.033-1.162-.166-2.235-.462-3.272-.751-.383-.106-.765-.213-1.149-.312-.169-.045-.337-.105-.504-.162-.432-.154-.831-.295-1.281-.327-2.73-.181-4.969-.29-7.047-.341a73.75 73.75 0 0 0-1.762-.021c-.883 0-1.764.013-2.627.026l-1.502.019a5.65 5.65 0 0 0-1.152.108 7.541 7.541 0 0 1-1.602.182c-1.805 0-3.341-.754-4.691-2.308-.45-.52-.866-.773-1.271-.773-1.503.086-2.918.183-4.345.436l-.323.065c-.631.139-1.244.354-1.837.564-.324.117-.597.211-.871.301-2.788.909-5.381 2.131-7.551 3.207-.448.221-.855.515-1.214.773-.533.382-1.035.742-1.586.863-.136.03-.269.045-.406.045-.131 0-.264-.015-.401-.04l-.082-.017-.227.01a3.806 3.806 0 0 1-1.084.419c-.433.097-.874.134-1.342.175-.528.045-1.018.087-1.499.183a3.46 3.46 0 0 1-.682.071c-1.018 0-1.834-.519-2.72-1.144-.817-.579-1.332-1.616-1.377-2.775-.047-1.176.392-2.269 1.174-2.923a26.874 26.874 0 0 0 2.49-2.32c.435-.466.382-1.293.24-1.735-.141-.438-.509-.707-.805-.923l-.14-.101c-.545-.418-.545-.418-.274-1.003.058-.122.12-.246.183-.369.2-.388.404-.786.484-1.25.133-.749.511-1.153 1.306-1.389 1.17-.349 2.255-1.779 2.276-3.001.014-.728-.313-1.324-.972-1.774-.471-.321-.793-.618-.981-.906a32.55 32.55 0 0 1-1.72-2.987c-.12-.237-.19-.542-.258-.837a8.43 8.43 0 0 0-.148-.578c-.63-2.09-.649-3.822-.061-5.455a1.38 1.38 0 0 0 .069-.462c.118-1.241 1.71-2.936 3.041-3.229.454-.075.786-.134 1.117-.207a8.585 8.585 0 0 0 1.562-.49 156.264 156.264 0 0 0 3.741-1.675l.173-.079c.953-.434 1.908-.871 2.867-1.292l.176-.077c.349-.155.669-.298.997-.371a1.8 1.8 0 0 1 .388-.045c.168 0 .33.028.494.084.129.043.269.067.415.067.167 0 .312-.028.407-.049.12-.028.245-.065.369-.102.092-.027.182-.054.332-.089.321-.072.628-.161.936-.249.294-.086.58-.168.868-.232a4.1 4.1 0 0 1 .876-.108c.157 0 .308.011.46.037l.181.014c.097 0 .199-.01.305-.033.456-.101 1.038-.446 1.269-.911.546-1.084 1.082-2.422.932-4.118-.193-2.179-.256-4.116.938-5.763.175-.243.502-.694.626-.723h.005c.141 0 .368.075.697.218 1.972.872 3.472 2.392 4.586 4.648a59.387 59.387 0 0 1 2.092 4.761c.372.956.802 1.901 1.218 2.813.738 1.624 1.486 3.271 1.914 4.989.403 1.614.98 3.186 1.538 4.707l.085.234c.167.457.642 1.279 1.351 1.453 1.658.409 2.685 1.579 3.764 2.951l.202.256c.889 1.128 1.779 2.258 2.676 3.379l.463.57c1.031 1.268 2.003 2.466 2.583 3.923.989 2.479 2.703 4.428 4.233 6.058 1.307 1.396 2.787 3.041 3.783 4.925.816 1.541 2.052 2.466 3.246 3.362l.536.404c.818.627 1.409 1.17 1.918 1.76 1.04 1.202 1.918 2.044 2.762 2.649.47.493 1.212 1.291 1.861 2.198.542.761 1.137 1.497 1.71 2.208.358.443.713.886 1.061 1.337l.417.54.095.369-.754-.939M467.948 17.947c.093.104.189.213.287.327-.019-.109-.035-.237-.057-.401-.036-.29-.077-.619-.179-.861-.109-.254-.4-.426-.685-.426h-.025c-.139.083-.202.122.125.687.127.218.334.448.534.674M523.043 144.908l.242-.137c1.341-.768 2.387-1.74 3.18-2.956-.706.511-1.39.797-2.122.892-.718.917-1.443 1.821-2.163 2.715.291-.189.585-.357.863-.514M484.483 28.535c.933-.988 1.814-1.921 2.837-2.702.869-.667 1.476-1.264 1.811-2.178.174-.478.45-.884.709-1.263l.229-.348c.6-.95.218-1.247.091-1.344a.728.728 0 0 0-.448-.173c-.236 0-.545.133-.893.383-.451.323-.835.883-1.157 1.382a41.466 41.466 0 0 1-1.21 1.732c-1.108 1.533-2.154 2.979-2.595 4.772a5.118 5.118 0 0 1-.172.579c.268-.278.53-.557.798-.84M373.959 84.678c-.003-.047-.023-.544-.023-.544a51.14 51.14 0 0 1-.046-1.618c-.019-.924-.037-1.879-.151-2.783-.268-2.157.62-3.826 1.481-5.439l.239-.454c.111-.21.26-.368.372-.487l.049-.045a4.85 4.85 0 0 0 .023-.561c-.678.496-1.171 1.002-1.459 1.5-.878 1.528-1.224 3.393-1.06 5.703.112 1.582.336 3.171.575 4.728M605.868 104.896c-.092.503-.185 1.007-.235 1.503l-.055.537-.506.186a6.824 6.824 0 0 1-2.341.426c-2.064 0-3.819-1.012-5.118-1.893-3.297-2.238-6.922-4.593-11.072-6.643l-2.226-1.098 2.429-.516c.196-.042.362-.089.509-.133.277-.077.537-.151.833-.151.086 0 .169.007.253.021 1.03.167 2.056.35 3.14.541 1.396.248 2.793.495 4.196.708a5.1 5.1 0 0 0 .736.053 6.6 6.6 0 0 0 1.294-.134.82.82 0 0 0 .236-.129.765.765 0 0 0-.154-.175c-.456-.196-.975-.31-1.546-.434a20.637 20.637 0 0 1-.791-.182c-.296-.074-2.27-.609-2.27-.609v-5.312l.988-.189a6.68 6.68 0 0 1 .928-.153c.85-.064.854-.203.862-.432.01-.327-.071-.896-.726-1.048a4.333 4.333 0 0 0-1.725-.024c-2.065.393-4.148.852-6.192 1.367-.383.095-.855.533-1.009.677-.384.355-.863.718-1.5.718-.334 0-.668-.101-.992-.304l-.465-.292.074-.674c.006-.208.022-.692.468-.962.669-.401 1.324-.873 1.986-1.349 1.79-1.286 3.64-2.614 6.16-2.887.953-.104 1.997-.727 2.698-1.185a6.927 6.927 0 0 1 3.806-1.123c1.876 0 3.643.751 4.853 2.061 1.958 2.123 2.702 4.251 2.412 6.909-.295 2.697-.598 5.486.213 8.225.379 1.284.121 2.65-.151 4.099m-3.833 12.743c-.436 2.135-2.733 3.872-5.126 3.872-1.908-.04-4.677-.412-6.68-3.184l-.475-.659.156-.127-.348-.073a57.99 57.99 0 0 1-1.229-.275c-.964-.221-1.874-.431-2.81-.545a4.192 4.192 0 0 0-.51-.032c-.48 0-.898.085-1.146.235-.899.548-1.81.825-2.705.825-1.077 0-2.124-.382-3.2-1.165-.126-.089-.262-.168-.478-.294a6.77 6.77 0 0 1-.411-.256c-2.231-1.531-2.534-2.53-1.542-5.086.271-.702.478-1.42.711-2.243.109-.386.219-.773.337-1.153.166-.545 1.06-3.391 1.06-3.391l5.653.823c.334-.317.843-.607 1.605-.996l.764-.392 1.52 2.953a601.54 601.54 0 0 0 2.838 5.47c.755 1.425.934 2.964.567 4.844l-.046.235.19-.154c.242-.204.461-.386.695-.552.782-.556 1.04-1.302.787-2.281-.517-1.994-1.258-4.284-2.843-6.147a14.936 14.936 0 0 1-2.406-3.92l-.679-1.596 1.683.422c.084.023.169.037.335.067.341.056.767.127 1.144.379l.546.36c1.123.74 2.285 1.504 3.344 2.427 1.665 1.45 2.58 3.418 2.725 5.848.038.653.142 1.134.318 1.471.05.096.278.267.273.29.081-.023.285-.208.318-.278.145-.451.203-.957.264-1.496.034-.295.068-.589.116-.881.039-.234.115-.463.192-.685l.069-.2.208-.677.704.076c2.279.239 2.903.71 3.513 2.656.597 1.893.352 3.755-.001 5.485m-29.944-22.736l.8-.638c1.364-1.081 2.533-1.91 4.095-1.91.45 0 .902.069 1.381.212l1.509.451-5.033 4.333-2.752-2.448zm2.222 9.852c-.195.58-.341 1.177-.493 1.809-.382 1.575-.777 3.205-1.977 4.606-.868 1.017-1.755 1.51-2.714 1.51-.865 0-1.689-.404-2.595-1.272-.263-.25-.562-.533-.783-.908l-.589-.998c-.765-1.287-1.631-2.745-2.401-4.21-1.738-3.303-4.11-5.735-7.255-7.435-1.852-.999-3.535-2.343-5.173-3.649-1.51-1.204-2.097-4.236-1.163-6.013.198-.377.51-.625.765-.827 0 0 .646-.538.884-.734.396-.32.792-.642 1.156-.995.986-.948 2.23-1.408 3.805-1.408l.353.008.471.025c.171.013.344.025.511.025.234 0 .403-.025.517-.073a4.944 4.944 0 0 1 1.936-.409c1.499 0 2.714.702 3.916 1.397.393.227.783.453 1.181.644.663.318.806 1.078.946 1.824.048.26.099.536.176.798l.291.985-1.609.178c-1.854.2-3.48.374-4.848 1.091 1.362.394 2.901.766 4.48.766.627 0 1.218-.056 1.83-.174l.913-.08.24 2.362s-1.782 1.054-2.187 1.289c-.354.204-.714.405-1.122.632-.72.404-1.465.821-2.155 1.273-.438.282-.403.564-.302.823.067.168.1.252.791.266l.33.003c.887 0 1.34-.103 1.677-.709.283-.51.752-.855 1.216-1.152 1.04-.667 1.739-.938 2.414-.938 1.207 0 2.019.836 3.016 2.281l.372.538s-.957 1.143-1.235 1.466a51.24 51.24 0 0 0-1.814 2.213c-.568.749-.639.907-.315 1.334.555-.41.952-1.044 1.37-1.716.521-.836 1.06-1.702 1.977-2.303l.49-.322.481.338c2.293 1.621 3.21 2.909 2.225 5.841m-14.874 1.864c-.205.194-.388.384-.567.571-.394.413-.766.802-1.247 1.093-1.797 1.094-3.365 2.585-4.88 4.025a69.796 69.796 0 0 1-2.016 1.873l-.563.498-1.482-1.288 8.327-11.926 2.941 4.666-.513.488zm-3.55-38.697c1.499-2.271 6.445-4.218 9.442-4.218.471 0 .9.045 1.279.136 1.797.436 2.374 1.066 2.682 2.934l.035.216c.037.25.1.667.203.793 2.643 3.243 3.17 6.926 1.613 11.251-.019.057-.032.119-.056.23-.025.117-.048.234-.082.347-.089.295-.29.452-.413.548l-1.208 1.041-.392-1.259c-.687-2.208-1.993-3.881-3.433-5.723-.302-.387-.605-.774-.899-1.17a4.016 4.016 0 0 0-.465-.526c-.347-.329-.718-.51-1.043-.51a.742.742 0 0 0-.493.181c-.168.14-.376.315.31 1.324a108.949 108.949 0 0 1 2.005 3.051c.174.277.263.557.372.899l.087.266.51 1.386-1.459-.239a16.976 16.976 0 0 1-1.031-.213c-.496-.114-.967-.221-1.364-.221-.086 0-.171.006-.255.017-.498.07-1.048.35-1.726.698l-.401.2-.206 1.849-.575.147c-.701.183-1.313.271-1.871.271-3.277 0-3.55-3.182-3.641-4.228-.288-3.368.545-6.558 2.475-9.478m16.729 21.384c.224-3.044.649-3.48 3.5-3.597.406-.015.823-.084 1.411-.179l.547-.084 1.161-.16-.194 1.157c-.255 1.505-1.413 3.384-5.481 3.782l-1.017.104.073-1.023zm9.673 11.825l-.177.731-.748-.078c-1.862-.189-3.123-1.054-4.442-2.294l-.627-.594.594-.628c.917-.966 1.852-1.832 3.191-1.832.25 0 .509.032.768.097.724.181 2.311.992 1.441 4.598m-8.944-38.856c.618-.691 1.602-1.101 2.635-1.101.305 0 .615.035.92.106 5.149 1.199 10.985 3.1 15.226 8.111.136.161.291.308.483.488.13.122.261.245.383.372 3.049 3.134 3.66 6.523 1.871 10.36-.393.845-1.309 1.484-2.043 1.745-1.066.378-2.177.658-3.279.936-.442.112-1.894.492-1.894.492l-3.091-4.064.367-.946c.12-.296.235-.577.302-.848.214-.862-.166-1.618-.515-1.758a.428.428 0 0 0-.129-.016c-.595 0-1.541.585-1.744 1.078-.15.371-.271.756-.43 1.261-.082.26-.171.543-.275.86l-.803 2.425s-1.233-3.597-1.412-4.132c-.372-1.109-.695-2.068-1.054-2.99-.231-.595-.498-.671-.846-.671h-.053c-.327.036-.524.055-.616.842-.038.332-.188.602-.317.838l-.077.149-.357.775-.778-.346c-1.463-.653-1.534-1.848-1.587-2.72l-.012-.186c-.051-.746-.193-1.49-.346-2.291-.061-.308-.392-2.126-.506-2.726-.254-1.336-.517-2.718-.668-4.119-.076-.695.152-1.378.645-1.924m35.855 40.94l-.03-.956c-.034-1.118-.07-2.273-.265-3.348-.422-2.324-.414-4.438.024-6.467.21-.972.25-1.971.112-2.816-.449-2.732-2.152-4.801-3.756-6.462-1.615-1.673-3.47-2.487-5.673-2.487-.148 0-.296.003-.448.011l-.902.044v-.904c0-.306-.016-.595-.036-.964-.039-.687-.074-1.337.097-1.987.527-2.007.095-3.798-1.358-5.632a45.55 45.55 0 0 0-1.339-1.589c-.612-.705-1.242-1.436-1.815-2.206-1.202-1.624-2.828-2.688-4.83-3.91-2.887-1.767-6.782-3.847-11.296-4.268-.256-.024-.464-.116-.751-.238-.73-.202-1.41-.305-2.02-.305-1.293 0-2.352.454-3.237 1.388-.808.848-1.648 1.244-2.64 1.244a5 5 0 0 1-1.438-.235 9.59 9.59 0 0 0-2.706-.399 9.52 9.52 0 0 0-3.809.813c-.4.175-.804.334-1.267.516-.57.227-1.111.441-1.639.698-2.069 1.009-4.012 2.087-5.053 4.177-1.113 2.229-2.396 5.22-2.425 8.581-.012 1.241-.01 2.481-.007 3.785l.004 2.521-.564.208c-1.679.617-2.891 2.08-3.412 4.12-.353 1.39-.423 2.915-.493 4.393l-.045.926c-.073 1.294.355 2.392 1.233 3.177 1.734 1.55 3.586 3.044 5.456 4.554l.227.183c.358.287.779.536 1.224.798.236.139.479.28.725.437l.753.473-.496.737c-.14.21-.264.404-.378.585-.249.39-.462.721-.71 1.028l-1.477 1.819c-2.03 2.508-4.129 5.101-6.238 7.615a27.24 27.24 0 0 0-4.797 8.373c-.992 2.781-2.218 4.71-4.098 6.45a125.59 125.59 0 0 0-4.412 4.264c.176.224.357.451.526.672.107.137.204.288.295.449.447-.49.893-.976 1.335-1.457l.906-.987c.733-.798 1.517-1.538 2.314-2.287a281.66 281.66 0 0 0 1.446-1.383l.557.292c1.847.98 3.1 1.38 4.328 1.38 1.093 0 2.254-.329 3.771-1.064 2.011-.975 3.943-2.227 5.812-3.437l.85-.548c.649-.419 1.255-.906 1.951-1.464.522-.417 1.044-.835 1.592-1.215 3.987-2.781 8.541-4.131 12.945-5.438l.556-.164s1.204.918 1.623 1.245c.805.632 1.718 1.349 2.65 1.962 1.403.923 3.041 1.909 4.694 1.909.689 0 1.348-.163 2.013-.498.771-.389 1.486-.578 2.186-.578 1.559 0 2.707.986 3.532 1.847.647.679 1.382 1.45 2.135 1.728 1.513.563 3.522 1.209 5.661 1.209.345 0 .694-.016 1.046-.05 3.564-.356 6.626-3.15 7.119-6.499.187-1.268.248-2.582.312-4.01.027-.608.055-1.23.102-1.801-.111-.402.081-.811.537-1.148 2.427-1.812 3.339-3.564 3.047-5.855-.052-.395.024-.749.095-1.085.037-.182.073-.352.069-.47M380.292 81.503c1.731-1.482 2.733-3.555 3.774-5.913.259-.585.079-1.612-.049-2.35-.021-.058-.145-.217-.261-.326-.226.113-.485.344-.596.547-.226.412-.393.881-.57 1.381-.181.509-.367 1.036-.635 1.545a14.93 14.93 0 0 1-1.901 2.781c-.986 1.14-1.505 2.22-1.686 3.499-.069.49-.18.969-.316 1.447.653-1.144 1.495-1.97 2.24-2.611" fill-rule="nonzero"/><path d="M492.384 120.873l-1.718-1.298 1.093-2.001 1.724.814-1.099 2.485zm-84.398 11.449c-.084.288-.233.514-.361.709l-.582.946-2.109-1.373.735-.888a4.42 4.42 0 0 1 .535-.581l.248-.212h.323c.499 0 .983.507 1.062.611l.268.379-.119.409zm-7.72-19.432l-.745-.808c-.783-.846-1.759-1.898-.991-3.718.117-.271.065-.47 0-.591-.093-.173-.276-.301-.58-.349-.327 0-.799.374-.829.984l-.041.643c-.046.683-.089 1.331-.002 1.932.042.293.292.706.654 1.077.06.058.361.155.544.212.184.06.38.122.577.202l.954.385-.773 1.244a5.914 5.914 0 0 1-.468.708c-1.45 1.775-2.442 2.676-3.844 2.676-1.026 0-2.074-.512-3.538-1.399a27.299 27.299 0 0 1-6.103-4.987c-.473-.516-1.059-.951-1.752-1.463-.266-.199-.532-.397-.787-.602-.198-.157-.311-.182-.362-.182-.086 0-.253.092-.463.353-.342.419-.365.719-.085 1.105a.81.81 0 0 0 .221.206c1.544.959 2.713 2.262 3.842 3.522.66.736 1.341 1.497 2.081 2.158l.184.166c.481.43.979.875 1.497 1.17 1.194.685 1.76 1.699 1.785 3.195.072 4.177-1.821 7.516-5.626 9.922-.523.33-1.049.492-1.612.492-.455 0-.916-.107-1.411-.328-1.083-.48-2.106-.723-3.042-.723-1.843 0-3.457.971-4.795 2.887-1.013 1.451-2.195 2.186-3.517 2.186-.632 0-1.289-.175-1.951-.516-2.545-1.31-3.721-3.397-3.23-5.724.089-.414.247-.789.399-1.148.076-.178.154-.359.214-.543.053-.164.122-.335.199-.52.066-.161.219-.541.207-.643-.584-2.548.604-4.312 1.758-6.03.41-.609.833-1.239 1.177-1.904l.788-1.53.752 1.547c.112.229.22.416.312.577.216.375.42.73.42 1.18-.001.963-.073 1.932-.144 2.868l-.042.591c-.019.26-.054.518-.092.813-.031.225-.06.449-.078.674-.037.518.027.612.168.644.002-.002.113-.064.225-.495.182-.709.356-1.416.53-2.127l.396-1.601c.072-.28.155-.555.242-.838l.269-.897.519-.098c.199-.036.385-.053.558-.053 1.403 0 2.068 1.052 2.554 1.821.281.443.461.922.622 1.351.089.236.177.469.283.695.445.949.896.949 1.043.949.208 0 .455-.069.736-.204.683-.334.914-.579.439-1.681-.096-.22-.175-.443-.255-.667l-.313-.859 1.389-1.125 1.592 1.343c.813.679 1.655 1.382 2.447 2.125.441.416.808.693 1.168.693a.853.853 0 0 0 .259-.042c.154-.047.365-.213.404-.213.004 0 .007.002.007.005.024-.164-.076-.519-.014-.519l.009.003c-2.141-.939-3.457-2.617-4.75-4.266-.374-.478-.748-.956-1.143-1.409-1.171-1.344-2.136-2.902-2.988-4.277-.717-1.155-.58-2.388.379-3.384.184-.19.313-.601.442-1.013l.111-.352c.075-.225.12-.459.168-.707a7.59 7.59 0 0 1 .235-.951c.65-1.901 1.557-2.607 3.349-2.607.167 0 .346.004.536.016 4.434.259 7.766 2.288 9.904 6.033l.137.246c.263.483.378.623.357.64 0 0 .052-.01.273-.179.037-.178-.354-.755-.483-.946-.258-.382-.536-.754-.828-1.145l-.627-.846.059-.36c.326-1.946.326-1.946-1.773-2.668l-.397-.125c-.854-.263-2.144-.66-2.761-2.156l-.362-.875.908-.276a7.319 7.319 0 0 1 2.147-.339c.666 0 1.309.102 1.972.31l.524.18c.341.124.661.241 1.116.298.133 0 .202-.03.222-.057.037-.054.046-.199-.023-.399-.608-1.792-1.644-2.591-3.358-2.591-.3 0-.623.028-.955.077l-.285.05c-.288.052-.616.11-.958.11-.823 0-1.492-.326-2.046-.995l-.449-.543.441-.547c1.945-2.407 4.545-2.84 6.594-2.95.121-.005.243-.007.364-.007.318 0 .641.019.962.039.285.018.569.036.854.036.441 0 .623-.133.722-.53.07-.281.074-.47-.457-.752-.609-.323-1.164-.472-1.743-.472-.243 0-.487.025-.748.077-2.997.591-5.651 1.648-8.114 3.228-.31.198-.641.198-.913.198h-.011c-.081 0-.173 0-.279.01l-.905.067-.02-.909c-.078-3.293-.175-7.395 2.714-10.624 1.028-1.148 2.375-2.008 3.604-2.301a18.987 18.987 0 0 1 4.398-.522c1.775 0 3.561.257 5.308.765 1.878.543 3.321 1.884 4.175 3.876.978 2.284 2.06 4.951 2.5 7.663.482 2.989.813 6.503-.399 9.909-.196.551-.374 1.111-.573 1.735-.735 2.31-1.497 4.698-3.431 6.687l-.635.653zm-37.15 12.644c-.745 2.547-2.509 3.08-3.858 3.08-.436 0-.905-.056-1.396-.169-4.596-1.052-7.875-3.927-10.22-6.315a3.328 3.328 0 0 1-.634-.964c-.946-2.145-2.038-5.019-2.079-8.247-.008-.659-.037-1.405-.282-1.943-.67-1.467-.548-2.944.351-4.268l.347-.518c1.109-1.667 2.257-3.391 4.6-4.06.482-.137.96-.407 1.466-.693.448-.254.911-.516 1.421-.712.721-.279 1.391-.414 2.046-.414 1.128 0 2.22.378 3.652 1.266l.833.518-.622.76c-.719.876-.982 1.913-.828 3.256.082.71-.117 1.375-.562 1.876-.471.528-1.184.828-1.955.828-.371 0-.744-.067-1.113-.201-.302-.109-1.476-.557-1.476-.557.003.037.007.074.012.104 1.027.669 1.92 1.08 2.731 1.256.548.119 1.147.136 1.661.136l1.198-.01c.278 0 .554.005.829.018.841.047 1.68.128 2.511.208l2.384.22-.629 1.153c-1.004 1.841-3.016 3.03-5.13 3.03a5.284 5.284 0 0 1-1.833-.323c-.13-.049-.473-.176-.684-.176-.017 0-.035 0-.054.003l3.687 1.615-.087.212s-.698 1.68-.784 1.907c-.172.457-.172.88.002 1.131.144.208.41.305.844.305 1.734-.073 3.316-.776 4.574-2.031.166-.166.263-.651.35-1.087.058-.297.119-.593.202-.865l.266-.868.852.311c1.33.483 2.092 1.165 1.487 2.914-.496 1.427-1.032 2.468-1.687 3.274-1.261 1.547-1.896 3.336-2.393 5.04m-11.829-40.608c.441-.938 1.087-1.89 1.92-2.833.781-.883 1.09-1.737 1.031-2.859-.065-1.309.183-2.659.681-3.703 1.123-2.343 3.192-3.634 5.826-3.634.406 0 .825.033 1.247.095.614.093 1.213.23 1.781.405 3.028.933 3.476 1.668 2.998 4.911a458.248 458.248 0 0 0-.706 5.037l-.428 3.095-3.256 1.225-.908-2.193c.031.114.179.726.229.922.203.78.412 1.586.247 2.414-.296 1.493.052 2.774 1.094 4.026.793.953 1.524 2.143.927 3.752l-.296.801-1.826-.662a42.912 42.912 0 0 0-2.356-.823c-.244-.075-.538-.102-.882-.129-.492 1.105-.437 1.143.881 2.045.498.34.93.737 1.433 1.2.157.143.314.288.476.428l.465.402-.674 1.683-1.406-.146c-.55-.055-1.103-.11-1.653-.179-.474-.06-.947-.128-1.421-.195l-.203-.03c-.977-.142-1.987-.29-2.977-.367-1.468-.116-3.454-.595-3.727-3.413-.447-4.662.01-8.138 1.483-11.275m15.495 23.379l-1.504-.001-1.011-.123.221-1.025c.023-.103.054-.247.153-.445l.342-.475h.522l.61.019.234.485c.075.158.11.305.153.487l.28 1.078zm3.865-6.119l.263.964-4.497.543.296-4.842.976.203c2.055.428 2.607 1.841 2.962 3.132m6.007-2.372a14.813 14.813 0 0 0-.691-.27c-.589-.225-1.198-.455-1.75-.832-.623-.427-1.165-1.523-.929-2.3.184-.596.584-1.059.938-1.466.12-.136.241-.274.349-.418l.555-.732.696.603c.127.112.262.217.398.322.37.288.753.586 1.075 1.026.566.776 1.514 2.075.413 3.746l-.393.6-.661-.279zm-1.758 9.524l-.432.712c-.103.166-.193.313-.274.46-.518.959-1.276 2.057-2.542 2.057-.437 0-.893-.133-1.394-.411-1.014-.563-1.849-1.696-2.129-2.886-.209-.892-.088-1.73.343-2.356.399-.581 1.274-.895 1.895-.895.173 0 .335.024.484.069 1.148.355 2.885.892 3.84 2.828l.209.422zm-2.499-6.859l-.461-1.318 1.383.179c3.244.421 4.006.618 3.928 3.179l-.021.763-.757.07c-.289.028-.55.042-.787.042-1.904 0-2.624-1.024-3.285-2.915m-1.553-30.991c1.146-1.928 2.444-3.793 3.753-5.671l.275-.394c.362-.519.975-1.217 1.847-1.587 2.403-1.03 4.891-2.094 7.653-2.094.687 0 1.376.067 2.049.2.83.166 1.797.45 2.669 1.297 1.52 1.475 2.96 3.196 3.203 5.782.15 1.594.407 3.257.651 4.83.138.905.277 1.811.399 2.721.052.385-.012.749-.09 1.202-.028.176-.061.372-.091.602l-.095.781-1.305-.035c-5.387 0-8.937 2.842-11.17 8.946l-.361.992-3.186-1.961c-.054.159-.543 1.701-.543 1.701l-.985-.809c-.13-.108-.265-.198-.401-.292-.317-.213-.67-.451-.853-.835.013.645-.161 1.459-1.113 2.034-.262.159-.517.368-.865.652-.188.156-.396.327-.638.513l-.779.61-.496-.856a18.653 18.653 0 0 0-.474-.76c-.379-.587-.737-1.14-.952-1.802-.393-1.207-.754-2.505-.744-3.817.033-3.952.374-8.137 2.642-11.95m86.486 57.399l-1.888-.976a90.313 90.313 0 0 1-2.669-1.405c-.732-.405-1.454-.828-2.179-1.253-1.148-.672-2.334-1.367-3.527-1.966-.981-.492-2.014-.939-3.083-1.4-1.216-.528-2.474-1.074-3.674-1.717-.898-.481-1.622-1.136-2.489-1.919a37.713 37.713 0 0 0-1.214-1.064l-1.839-1.524h2.387c.313 0 .571-.017.792-.031a9.41 9.41 0 0 1 .515-.019c.318 0 .563.038.793.129l.36.137c2.198.841 4.471 1.71 6.501 3.237.893.674 1.95 1.153 3.124 1.688.553.249 1.108.503 1.644.778 2.319 1.195 4.528 2.828 6.95 5.139l.493.473-.997 1.693zm15.936-41.295c-.49-.761-.225-1.636-.138-1.923.254-.83.853-1.287 1.687-1.287.374 0 .752.087 1.116.169l1.136.251-1.273 3.851-.705-.093c-.868-.115-1.481-.44-1.823-.968m-6.115-11.026a8.148 8.148 0 0 1-1.16-1.51c-.939-1.615-.758-2.082.422-3.374l.125-.137c2.49-2.735 3.756-5.773 3.765-9.029.004-1.386-.171-2.77-.374-4.361-.078-.627-.157-1.256-.216-1.845-.079-.49.278-.916.67-1.047 1.443-.473 2.453-.782 3.297-.782 1.878 0 2.567 1.565 3.52 3.732l2.611 5.948.097.166c.181.311.429.734.693.734h.011c.269-.064.344-.37.224-.912-.222-1.018-.57-2.091-1.062-3.282-.443-1.073-.947-2.143-1.548-3.421l-1.07-2.3 4.057-1.588.294.847c.459 1.331 1.109 2.082 2.244 2.593.966.434 1.604 1.366 2.221 2.269.432.633.809 1.302 1.182 1.962.291.516.584 1.034.924 1.564.992 1.54 2.016 3.133 2.283 5.139.015.138.035.21.044.235.242.672.623 1.112 1.088 1.112h.028c.426-.116.36-.773.231-1.307-.63-2.594-1.213-4.735-2.484-6.689-.602-.922-1.043-1.893-1.53-2.962-.205-.453-.411-.91-.634-1.37l-.329-.665.612-.421c1.458-1.007 3.017-1.497 4.764-1.497 1.395 0 2.741.31 4.11.654 1.452.367 2.859.905 4.24 1.431.923.354 1.88.719 2.826 1.021.134.042.325.067.513.067.246 0 .414-.04.467-.04.014 0 .019.003.017.01.056-.118.077-.664-.072-1.044-.355-.907-1.155-1.496-2.516-1.854-1.535-.399-8.308-2.131-8.308-2.131l-.157-.419c-.183-.479-.18-.929.009-1.336.289-.618.901-.902 1.4-1.081 1.565-.555 3.199-.825 4.998-.825 1.371 0 2.852.161 4.526.492l.301.1.134.131c.555.544 1.137.757 2.072.757.354 0 .713-.031 1.138-.067.44-.035.884-.07 1.328-.07l.166.002c2.33.046 4.663.931 6.437 1.696 2.777 1.201 4.784 3.441 6.447 5.448 2.229 2.689 1.617 5.753.834 8.123-1.047 3.175-3.266 5.468-5.511 7.473-.311.278-.647.528-.986.777-.293.214-.59.43-.859.672-1.286 1.146-2.572 1.704-3.933 1.704-.721 0-1.477-.161-2.247-.478a1.926 1.926 0 0 0-.738-.145c-.936 0-1.898.655-2.394 1.626-1.001 1.959-2.247 4.4-4.608 6.016a19.306 19.306 0 0 1-9.771 3.377 9.896 9.896 0 0 1-.663.022c-2.628 0-5.168-1.042-7.546-3.094-1.049-.906-2.15-1.504-3.364-1.829a4.358 4.358 0 0 0-1.118-.166c-.241 0-.442.03-.599.089a5.695 5.695 0 0 1-2.049.394c-.803 0-1.614-.173-2.631-.561-2.498-.954-4.688-2.462-6.893-4.744m1.116 7.558l-3.444-3.777 1.967-.018c1.357 0 2.291.638 2.779 1.897l.213.557-1.515 1.341zm-4.195-13.828c-2.987 2.834-6.592 3.743-10.654 4.561-.402.083-.801.183-1.199.285-.671.168-1.432.36-2.201.448a24.788 24.788 0 0 1-2.797.179c-2.449 0-4.41-.548-5.995-1.681-2.766-1.976-5.883-4.38-7.879-7.911-.076-.134-.164-.263-.288-.447-.235-.346-.501-.741-.636-1.219-.717-2.554-2.573-4.144-5.138-5.743-1.963-1.224-3.32-2.937-4.387-4.45-.578-.82-.855-2.005-.672-2.881.665-3.21 1.572-6.535 4.637-8.831.576-.431 1.14-.92 1.688-1.394.565-.487 1.148-.992 1.763-1.453.431-.324.929-.459 1.424-.595.143-.038.284-.077.417-.124l.833-.293.197.603c1.043-1.462 2.392-2.202 4.015-2.202.102 0 .2.002.296.008 2.072.114 4.139.459 6.138.795l.701.115c.651.109 1.159.42 1.473.904.218.34.433.916.213 1.746l-.651 2.406h-6.95l-.088-.764c-.258-2.257-.602-2.257-1.039-2.257-.406 0-.998.121-1.919.389-.219.065-.437.119-.761.195l-1.439.321c-.942.902-1.686 1.615-1.743 1.937-.043.241.432.89 1.032 1.711l.546.749-3.895 2.429a3.085 3.085 0 0 0-.501.342c-.545.501-.667 1.234-.295 1.784.214.315.542.489.92.489.253 0 .527-.08.789-.23a61.848 61.848 0 0 0 2.224-1.364c.767-.483 1.532-.966 2.319-1.416 2.295-1.315 4.78-1.98 7.382-1.98.914 0 1.861.082 2.814.246l.188.032.048 1.612-1.688.387a85.803 85.803 0 0 0-3.323.794c-2.366.632-4.14 1.481-5.586 2.672-.654.54-1.178 1.104-1.556 1.676-.3.451-.263.909.11 1.324.182.203.39.304.635.304.165 0 .342-.044.525-.128.425-.194.875-.507 1.336-.928 1.965-1.789 4.318-2.815 6.595-3.807.478-.208.956-.418 1.429-.631.493-.224 1.018-.264 1.575-.306.264-.019.556-.04.886-.086l2.704-.357-2.007 1.846-.94.851a22.52 22.52 0 0 0-1.298 1.222c-.253.264-.399.564-.391.807.003.11.037.191.107.256.192.178.298.178.339.178.088 0 .287-.042.648-.321.508-.393 1.19-.888 1.98-1.226.966-.418 1.844-.619 2.685-.619.87 0 1.724.222 2.539.661 2.309 1.247 5.003 2.041 8.23 2.433 1.868.227 3.347 1.087 4.783 1.92l.586.34c.884.505 1.477 1.63 1.652 2.461.927 4.377-.245 8.153-3.485 11.226m-27.46-36.895c.467-2.974.952-6.05 3.359-8.385a107.73 107.73 0 0 1 6.04-5.476c1.089-.912 2.409-1.336 4.156-1.336.469 0 .973.029 1.582.094.704.074 1.238.333 1.585.769.336.421.466.959.388 1.601-.392 3.247.216 6.067 1.858 8.621.207.322.274.671.346 1.04.02.095.038.196.067.303l.21.781-.77.258a2.776 2.776 0 0 1-.864.158c-.954 0-1.368-.656-1.672-1.14-.557-.884-1.294-1.814-2.239-2.823-.041-.03-.232-.109-.252-.162-.057.053-.188.311-.185.44.008.381.151.863.425 1.432.133.274.342.548.653.955.166.22.354.465.559.751l1.324 1.849-2.216-.508c-1.367-.311-2.145-1.036-2.812-1.656a6.941 6.941 0 0 0-.543-.472c-1.4-1.062-2.484-1.496-3.741-1.496-1.214.017-1.285.424-1.315.598-.111.641.258 1.082 1.098 1.307l.637.159c.558.136 1.134.275 1.705.5.852.333 1.435.737 1.785 1.235.437.623.587 1.585.356 2.284-.242.741-1.294 1.151-1.942 1.151l-.177-.011c-1.868-.226-3.761-.555-5.431-.845l-.294-.05c-.677-.116-1.347-.264-2.06-.42l-1.799-.387.179-1.119zm20.072-13.882c.607-1.711 1.634-3.081 2.975-3.965 3.003-1.972 6.108-4.008 9.829-4.763a14.344 14.344 0 0 1 2.823-.262c.726 0 1.508.046 2.32.138 1.728.197 2.411.983 2.68 1.608.277.649.372 1.731-.749 3.212-.237.313-.49.611-.743.91l-.367.436c-.406.496-.448.876-.146 1.358.258.412.609.64.988.64.09 0 .18-.012.268-.034a4.964 4.964 0 0 0 1.892-.957c.583-.477 1.074-1.091 1.347-1.684.581-1.263 1.641-2.215 2.984-2.679l.577-.199c2.699-.933 5.492-1.898 8.355-2.366a13.956 13.956 0 0 1 8.236 1.169c2.709 1.299 4.409 3.786 5.201 7.607.199.97-.837 1.913-1.216 2.167-.925.62-1.869 1.21-2.814 1.802-1.079.677-2.196 1.378-3.258 2.107-.78.538-1.555 1.242-2.515 2.281a77.006 77.006 0 0 0-2.196 2.515 89.398 89.398 0 0 1-1.704 1.976c-.346.391-.736.83-1.373.83-.512 0-.909-.264-1.697-.789l-.551-.364.208-.626c.535-1.61 1.658-2.665 2.963-3.782a57.386 57.386 0 0 1 2.352-1.879c.562-.435 1.126-.87 1.708-1.345.441-.359.565-.502.582-.518.025-.223-.031-.522-.151-.805-.136.024-.25.061-.278.077-2.934 1.913-6.216 4.281-7.996 8.209l-.297.652-4.836-1.205.373-.374a1.807 1.807 0 0 1-.443.052c-.545 0-1.153-.22-1.899-.547l-.598-.263.092-.645c.239-1.688 2.09-5.771 3.143-6.938.1-.108.213-.205.342-.309a.93.93 0 0 0 .128-.115c.873-.978.619-1.236.414-1.444-.252-.258-.664-.419-1.072-.419-.19 0-.541.039-.767.292a11.927 11.927 0 0 0-1.919 2.983c-.578 1.283-1.054 2.589-1.557 3.974-.216.595-.434 1.197-.665 1.801l-.174.463-.488.084c-.474.08-.971.154-1.387.154-1.742 0-2.021-1.359-2.291-2.68a16.93 16.93 0 0 0-3.045-6.799c-.228-.307-.589-.576-1.013-.894a13.91 13.91 0 0 1-.65-.501l-.134.364c-.427 1.167-.167 2.186.927 3.636 1.35 1.787 2.009 3.589 2.014 5.508l.002.739-1.254.203a8.068 8.068 0 0 1-1.1.149c-.365.017-.664.03-.917.03-1.727 0-2.019-.781-2.661-2.499-.213-.573-.455-1.227-.785-1.735-.377-.582-.81-.841-1.409-.841-.234 0-.502.04-.793.12-.561.153-.661.242-.66.242.064.587.29 1.062.342 1.118 1.905.91 2.876 2.424 3.054 4.767.079 1.046 1.257 1.836 2.742 1.839h.321c1.107 0 2.289-.018 3.425-.141a22.01 22.01 0 0 1 2.369-.129c4.404 0 8.521 1.298 11.967 2.568 2.725 1.004 4.649 3.2 6.174 5.215.615.815.867 1.841.711 2.89-.194 1.286-.979 2.511-2.154 3.361a75.005 75.005 0 0 1-4.119 2.761c-2.217 1.394-4.702 1.742-7.058 1.913l-.636.043-.229-.595c-.94-2.474.438-4.155 1.544-5.507l.516-.633 1.079.083c.462.032.908.066 1.356.118.183.023.36.034.531.034 1.064 0 1.907-.424 2.653-1.331.754-.921.913-1.934.424-2.713a10.717 10.717 0 0 0-1.916-2.238c-.102-.088-.307-.142-.552-.142-.747 0-1.689.432-2.289 1.049-.365.377-.701.781-1.127 1.289l-.672.797-1.153 1.342-.155-.781-2.208 9.59-.573.091c-.078.013-.315.126-.449.191-.423.201-.95.451-1.566.451-.559 0-1.066-.207-1.505-.614-1.195-1.113-.72-2.582-.376-3.647.043-.137.087-.274.125-.408.284-1.019.594-1.993.921-2.897.781-2.163 2.31-3.258 4.545-3.258l.989.017-.347-1.781c-.142-.749-.265-1.403-.424-2.048-.664-2.737-1.714-2.754-2.214-2.761-1.283 0-2.238.711-2.919 2.178l-.153.316c-.202.418-.454.938-.427 1.246.139 1.55-.485 2.679-1.088 3.772-.12.216-.239.434-.353.655-.986 1.923-1.565 4.107-1.875 7.077-.086.82-.245 2.346-1.762 2.346-.438 0-.951-.132-1.636-.343l-.655-.205.05-.68.011-.325c.004-.307.009-.689.123-1.072.646-2.182.8-4.057.481-5.9-.163-.952.276-1.966.774-2.918.747-1.426.587-3.389-.359-4.377-.485-.506-1.096-.742-1.922-.742-.511 0-1.05.087-1.508.174-1.213.228-2.012 1.098-2.374 2.586-.271 1.11.094 1.945 1.087 2.477 2.129 1.147 2.232 3.206 2.311 4.787.014.27.027.538.054.799.103 1.055-.149 2.074-.42 3.175-.112.453-.228.92-.317 1.408l-.168.911-.896-.234c-1.018-.264-2.038-.393-3.023-.517-1.768-.224-3.437-.435-5.069-1.336-3.173-1.75-4.788-4-5.081-7.079-.372-3.896 1.817-7.105 5.447-7.986.864-.21 1.735-.384 2.606-.556a66.413 66.413 0 0 0 2.409-.512c.766-.183 1.432-.429 1.98-.731.399-.221.64-.501.677-.789.04-.297-.127-.642-.468-.969l-.127-.122c-.168-.165-.342-.334-.485-.406-3.618-1.821-5.594-7.195-4.146-11.274m56.249 2.968c2.262 0 4.469.608 6.558 1.807 4.131 2.369 6.492 6.215 6.831 11.127.055.817.04 1.637.025 2.471l-.013.792c-.024 2.841-1.613 4.924-2.994 6.421-.961 1.043-2.102 1.892-3.207 2.716-.444.332-.89.663-1.323 1.009-.517.41-1.094.62-1.714.62-.474 0-.967-.116-1.552-.367-3.226-1.38-6.768-1.837-10.201-2.28-.741-.096-1.482-.191-2.219-.295-.675-.096-1.346-.21-2.143-.345l-3.348-.558 1.64-1.211c.24-.176.421-.322.579-.449.288-.228.516-.409.811-.53.521-.214 1.038-.435 1.665-.701 1.527-.653 3.104-1.326 4.746-1.818 1.872-.56 3.789-.959 5.64-1.343l.275-.059c.602-.125 1.205-.249 1.802-.383a7.64 7.64 0 0 1 .909-.123c.202-.017.405-.037.603-.072.642-.117.644-.314.647-.541.008-.482-.251-.733-.771-.748a17.783 17.783 0 0 0-.611-.008c-1.183 0-2.403.088-3.592.174l-.176.013c-.568.04-1.141.131-1.82.24-.329.053-.677.108-1.053.161l-1.473.213.551-1.383c.064-.159.107-.31.148-.448.114-.382.243-.817.68-1.064 1.083-.604 2.184-1.175 3.348-1.782l1.363-.712c.182-.096.37-.187.611-.303.472-.227.916-.442 1.258-.72.325-.268.371-.627.134-1.067-.146-.276-.396-.604-.751-.604a.807.807 0 0 0-.203.029l-.348.093c-1.275.335-2.478.653-3.645 1.27-1.48.782-2.875 1.741-4.303 2.72-1.018.696-2.072 1.418-3.165 2.066-.249.147-.489.175-.76.208-.113.014-.254.031-.432.061l-2.345.401 1.546-1.809c.162-.192.315-.359.536-.602.257-.278.478-.516.604-.739l.105-.183c.349-.607.708-1.234.808-1.81.035-.205-.142-.656-.279-.714-.272 0-.569.111-.639.172-1.581 1.349-3.135 2.796-4.65 4.204l-1.147 1.065c-.132.125-.246.271-.399.464l-.888 1.078-2.653-2.239.286-.598c.059-.125.105-.245.156-.375.119-.308.254-.658.552-.935l1.463-1.376c1.817-1.707 3.694-3.473 5.634-5.117 1.381-1.169 2.933-2.09 4.404-2.91 2.707-1.508 5.365-2.274 7.899-2.274m-36.684 76.006l-1.475 1.498v-7.328l1.603-.284.068.183c.093.262.212.521.342.81.599 1.321 1.418 3.131-.538 5.121m23.893 17.244c2.902-2.554 5.166-5.747 7.357-8.836l1.122-1.576c.113-.154.206-.383.298-.604.057-.137.112-.276.174-.408l.741-1.606c.577-1.256 1.175-2.558 1.817-3.816.29-.569.209-.982-.313-1.576-.216-.247-.55-.54-.925-.54a.966.966 0 0 0-.483.149c-.912.531-1.865.945-2.793 1.348-1.644.715-3.194 1.392-4.407 2.626-.265.27-.566.446-.873.627-.141.082-.282.163-.402.268-.408.35-.83.686-1.278 1.044-1.016.809-1.973 1.573-2.688 2.503-2.007 2.604-3.789 5.406-5.413 8.046-1.373 2.23-2.701 4.552-3.872 6.602l-.336.583c-.555.969-1.11 1.938-1.671 2.9-.379.647-.733 1.225-1.214 1.733-1.425 1.502-2.438 3.101-3.097 4.89-.254.692-.649 1.292-1.068 1.929-.168.255-.336.512-.487.775-.293.511-.571 1.026-.919 1.669l-1.278 2.354-.693-1.653c-1.111-2.651-1.142-5.133-1.009-7.418.074-1.285.01-2.271-.205-3.102-.99-3.817-1.466-7.83-1.457-12.267.005-1.59.165-3.184.32-4.736.058-.565.114-1.13.163-1.696.028-.324.141-.93.56-1.333 1.038-.994 1.563-2.315 2.122-3.719.32-.804.651-1.637 1.094-2.43.642-1.151.979-2.496 1.336-3.92.128-.515.256-1.026.399-1.528.272-.962.435-1.959.567-2.82.106-.676.176-1.355.256-2.14l.259-2.369 1.079.489c.282.125.535.231.778.333.474.2.881.374 1.27.609 1.906 1.155 4.024 1.763 6.474 1.856.154.006.305.01.457.01 2.584 0 5.006-.849 7.239-1.766 3.765-1.547 6.388-3.76 8.023-6.765.777-1.43 1.874-2.153 3.262-2.153.246 0 .507.024.782.073.392.07.782.107 1.164.107 2.259 0 4.091-1.207 6.148-3.017.592-.522 1.139-1.113 1.673-1.688.513-.552 1.043-1.125 1.618-1.647 1.267-1.155 2.178-2.657 2.953-4.869.208-.595.4-1.197.584-1.799 1.056-3.442 1.329-8.334-3.375-12.096-.285-.228-.469-.501-.63-.737l-.1-.141-.446-.568.481-.539c.578-.641 1.17-1.258 1.758-1.874l.136-.142c1.416-1.47 2.752-2.86 3.817-4.455 1.552-2.326 2.244-4.869 2.053-7.557a71.85 71.85 0 0 1-.09-1.544c-.121-2.357-.235-4.583-1.339-6.624-3.482-6.446-8.499-9.58-15.336-9.58-.898 0-1.843.056-2.81.169l-.611.072-.912-1.889c-.45-.924-.895-1.836-1.3-2.766-1.204-2.756-3.41-4.726-6.946-6.206-1.491-.622-3.045-.705-4.372-.705-.515 0-1.031.014-1.692.033-.581.018-1.165.037-1.745.037-.975 0-1.765-.049-2.424-.154a1.316 1.316 0 0 0-.239.1 3.755 3.755 0 0 1-.581.216c-2.219.625-4.441 1.251-6.668 1.861-.33.089-.621.132-.889.132-.687 0-1.295-.271-1.855-.826-1.112-1.109-2.712-1.731-4.894-1.904a23.972 23.972 0 0 0-1.847-.074c-3.102 0-5.773.669-8.166 2.045-.722.414-1.462.805-2.206 1.192-2.509 1.316-4.878 2.558-6.521 4.843-.469.657-1.442.729-1.849.729l-.396-.017c-1.108-.05-2.252-.102-3.374-.362a4.42 4.42 0 0 0-1-.117c-1.163 0-2.229.473-3.118.935-3.368 1.754-5.894 4.635-8.336 7.421-.506.575-1.013 1.154-1.525 1.721-.267.297-.478.812-.502 1.229-.138 2.347-1.299 4.058-3.65 5.386-.582.325-1.266.899-1.223 1.777.088 1.77-.919 2.695-1.967 3.499-1.541 1.183-3.287 2.522-4.756 4.048-1.046 1.088-1.998 2.451-2.75 3.94-.663 1.315-1 2.855-1.222 4.051-.56 3.02-.015 5.228 1.714 6.951l.603.607c1.438 1.447 2.793 2.812 4.568 3.686.651.322 1.268.92 1.835 1.78a23.92 23.92 0 0 1 1.836 3.281c1.799 3.947 5.154 6.647 8.401 9.259 2.187 1.762 4.874 2.619 8.213 2.619.973 0 2.024-.076 3.122-.225 1.323-.176 2.671-.436 4.063-.704.806-.156 1.612-.31 2.419-.449.519-.089 1.043-.134 1.669-.188l.676-.06.869-.092.076.871c.051.562.075 1.1.098 1.619.043 1.021.081 1.905.316 2.704.343 1.172.611 2.375.876 3.572.505 2.287.984 4.446 1.996 6.452.289.569.569 1.149.848 1.731.925 1.927 1.882 3.92 3.205 5.491 2.407 2.856 3.676 6.181 3.988 10.46.03.386.036.773.039 1.163.017 1.207.03 2.161.717 3.018.364.456.406 1.037.415 1.547.055 2.216.449 4.452.829 6.614.456 2.594.927 5.274.856 8.033-.051 2.027.15 4.099.345 6.102.101 1.056.203 2.11.272 3.161.027.41-.029.784-.1 1.261-.038.233-.076.499-.113.816l-.231 2.018-2.103-2.56c-.419-.514-.759-.928-1.103-1.337l-2.449-2.888c-1.659-1.95-3.318-3.9-4.941-5.879-3.026-3.688-5.918-6.259-9.096-8.088a2.764 2.764 0 0 1-.714-.599c-1.967-2.337-4.603-4.088-8.055-5.355-1.501-.55-2.868-1.267-4.2-1.966l-.258-.134c-.333-.175-.747-.279-1.28-.414-.201-.051-.4-.103-.595-.161a5.742 5.742 0 0 0-.482-.121c-.415-.097-.885-.206-1.315-.466-1.477-.884-3.071-1.315-4.877-1.315-1.041 0-2.142.14-3.366.429-2.007.472-2.098.493-2.037 2.316.194.072.392.143.6.219.876.319 1.782.647 2.633 1.133 1.258.718 2.495 1.508 3.692 2.272l.153.097c.936.597 1.872 1.195 2.827 1.762a283.599 283.599 0 0 0 8.082 4.625 55.59 55.59 0 0 0 2.449 1.254c.945.465 1.92.946 2.856 1.483a351.026 351.026 0 0 1 5.421 3.19l.225.134c1.529.912 3.06 1.824 4.601 2.717l.453.26c1.731.997 3.52 2.025 4.805 3.86.756 1.082 1.669 2.066 2.807 3.214a95.187 95.187 0 0 0 2.358 2.266c.862.811 1.724 1.621 2.552 2.464.902.917 1.362 1.735 1.409 2.5.079 1.317.18 2.633.282 3.948.276 3.533.56 7.186.373 10.832-.06 1.121-.098 2.24-.132 3.362-.027.913.079 1.834.193 2.82.238 2.056.484 4.183-.485 6.247.017.141.028.279.019.408l-.032.564a44.965 44.965 0 0 1-.145 1.943c-.04.372-.099.745-.158 1.115-.086.538-.168 1.046-.183 1.55-.021.795-.002 1.593.019 2.492.017.725.033 1.451.019 2.175-.01.516-.119 1.021-.249 1.625-.053.253-.112.531-.169.846l-.284 1.586-1.161-1.12a33.152 33.152 0 0 0-.705-.661c-.411-.379-.734-.68-1.025-1.032l-1.367-1.648c-1.383-1.655-2.812-3.366-4.126-5.163-1.72-2.355-4.034-4.194-6.275-5.974-1.584-1.259-3.223-2.558-4.678-4.054-.686-.703-1.481-1.299-2.327-1.934-1.335-.997-2.717-2.028-3.721-3.575-.21-.324-.87-.637-1.187-.787-2.514-1.189-4.76-2.303-6.786-3.887-.267-.209-.541-.412-.814-.617l-.178-.134c-.633-.469-1.287-.955-1.892-1.495-.875-.78-1.856-1.403-2.896-2.068-1.301-.828-2.646-1.684-3.806-2.887-3.088-3.207-5.659-5.461-8.333-7.313-2.414-1.673-4.741-3.532-7.023-5.36l-.902-.722c-1.515-1.209-2.329-2.704-2.49-4.57-.114-1.323-.628-2.699-1.126-4.03-.436-1.166-.992-2.331-1.54-3.484l-.44-.925-.425-.921c-.99-2.166-1.926-4.213-3.815-5.642-.759-.574-1.37-1.285-1.967-1.978a26.341 26.341 0 0 0-.762-.859l-.417-.442.281-.543c.249-.483.5-.953.786-1.487.543-1.016 1.105-2.069 1.573-3.124a49.36 49.36 0 0 0 1.854-4.884c.175-.541.286-1.106.413-1.757.127-.651.259-1.324.481-1.982.783-2.34.796-4.86.042-8.174a57.185 57.185 0 0 0-.55-2.156 60.735 60.735 0 0 1-.557-2.174c-.813-3.533-1.818-6.321-4.078-8.442-.514-.483-1.209-.913-2.007-1.24-1.01-.414-2.093-.672-3.116-.902-1.315-.296-2.008-1.245-1.901-2.606.216-2.745-.398-5.351-1.051-8.112-.137-.576-.272-1.155-.401-1.733-.945-4.248-4.786-7.33-9.135-7.33-.655 0-1.31.073-1.95.219-.768.173-1.567.324-2.37.446-3.312.498-6.006 1.961-8.007 4.345a30.87 30.87 0 0 0-2.79 3.859c-.815 1.346-1.922 1.973-3.487 1.973-.306 0-.627-.024-.966-.065-1.743-.212-3.148-.313-4.421-.313-.522 0-1.041.017-1.558.056-4.057.295-7.334 3.873-7.458 8.147-.019.66-.162 2.306-1.072 3.308-1.093 1.209-1.435 2.699-1.798 4.28a27.26 27.26 0 0 1-.466 1.831c-.369 1.211-.335 2.452-.297 3.822.013.47.026.941.018 1.413-.003.298-.012.596-.021.895-.049 1.682-.096 3.269.723 4.698.286.502.794 1.791-.661 2.952-.949.763-1.838 1.584-2.818 2.505-1.284 1.203-2.189 2.17-2.15 3.659.059 2.184.057 4.372.047 6.414-.01 1.871.546 3.7 1.697 5.588.789 1.296 1.25 2.321 1.495 3.325.45 1.851 1.883 2.872 3.404 3.955.144.102.311.178.508.268.262.123.536.253.797.444 1.395 1.013 3.283 2.217 5.521 2.531.957.138 2.031.203 3.284.203 1.877 0 3.026.83 3.612 2.609.657 1.983 2.294 3.438 5.01 4.45a6.358 6.358 0 0 0 2.226.412c2.242 0 4.357-1.243 5.806-3.41.586-.875 1.355-1.769 2.617-1.769.514 0 1.058.148 1.71.469.554.269 1.114.389 1.817.389.422 0 .856-.045 1.226-.087 2.013-.23 3.694-1.203 5.618-3.256.827-.885 1.537-1.562 2.512-1.562.69 0 1.323.322 2.251.919 2.661 1.708 5.275 3.532 7.804 5.299l.52.362c1.603 1.125 3.119 2.189 4.918 2.189.289 0 .585-.028.881-.084a5.57 5.57 0 0 1 1.001-.094c1.78 0 3.069.92 3.992 1.723l2.629 2.283a601.724 601.724 0 0 1 6.19 5.41 257.747 257.747 0 0 1 4.013 3.666l.324.3c.801.741 1.601 1.48 2.407 2.214.171.155.388.287.616.43.182.112.362.224.531.348 0 0 4.847 3.517 5.84 4.228.676.486 1.34.997 2.003 1.509 1.487 1.144 3.022 2.328 4.66 3.139 2.911 1.44 5.29 3.492 7.59 5.475.53.458 1.058.913 1.594 1.364.617.515 1.207 1.08 1.853 1.697 1.054 1.012 2.05 1.968 3.197 2.658 1.541.932 2.681 2.201 3.782 3.432.986 1.099 1.916 2.137 3.088 2.903l.258.219.073.187c.429 1.091 1.331 1.885 2.289 2.73 1.195 1.054 1.668 2.249 2.149 3.91 1.415.637 1.486 5.83 1.769 7.475.031.182.169.421.317.675.126.221.253.443.35.672l.353.824c.986 2.291 2.007 4.662 2.061 7.386.023 1.044.104 2.351.268 3.459.32 2.149 2.239-.088 1.543 2.222.053.917.13 1.835.208 2.759.229 2.729.466 5.554.082 8.398-.026.179.035.447.1.736l.053.235c.353 1.669.332 3.458-.063 5.625l-.03.165c-.204 1.106-.38 2.063.201 2.929.353.525.34 1.181.33 1.714a567.935 567.935 0 0 1-.092 3.904 504.74 504.74 0 0 0-.107 4.61c-.014.935.378 1.529 1.031 1.552l.027.002c.218-.002.439-.107.624-.294.276-.282.433-.71.425-1.178a88.703 88.703 0 0 0-.131-3.19c-.07-1.325-.151-2.827-.135-4.276l.004-1.03c.003-1.989.007-4.046.574-5.969l.577-9.046-.8.675-.508-.918c-.051-.092-.103-.17-.156-.252-.144-.214-.322-.483-.322-.855-.001-.893.007-1.787.016-2.68l.002-.207c.012-1.237.023-2.472.012-3.707a111.94 111.94 0 0 0-.074-2.865 89.068 89.068 0 0 1-.072-3.541c.007-1.019.083-2.045.158-3.036l.013-.174c.036-.489.073-.98.099-1.47a13.29 13.29 0 0 0-.016-1.391l-.049-.987a185.32 185.32 0 0 0-.728-9.971c-.04-.397-.138-.811-.243-1.254-.22-.945-.449-1.923-.168-2.871.586-1.983.921-4.028 1.023-6.251.094-2.081.155-4.162.216-6.244l.088-2.898c.029-.909.066-1.818.108-2.838.082-1.99.167-4.048.161-6.06-.006-2.28-.146-4.45-.418-6.45-.419-3.081.966-5.43 2.31-7.709l.413-.703c1.106-1.909 2.333-3.751 3.518-5.533l.137-.208c.518-.775 1.033-1.552 1.539-2.337a151.4 151.4 0 0 0 1.512-2.407c1.061-1.715 2.161-3.487 3.4-5.134 1.205-1.602 2.554-3.082 3.86-4.513l.174-.191c.585-.644 1.168-1.284 1.735-1.938.446-.513.874-1.048 1.302-1.588.862-1.086 1.754-2.209 2.827-3.152M582.392 107.853l-.119.388c-.137.432-.266.841-.253 1.174.005.045.06.159.111.252.053-.019.105-.039.127-.039.007 0 .01.002.01.005.354-.835.513-1.504.482-2.042 0 0-.029-.55-.034-.7-.126.346-.232.65-.324.962" fill-rule="nonzero"/><path d="M543.174 112.689a4.087 4.087 0 0 1-1.667.521c-.097.005-.193.01-.291.01-.901 0-1.797-.328-2.661-.976-1.059-.794-2.08-1.676-2.981-2.452-.4-.345-1.502-1.279-1.502-1.279l.318-1.47c.134-.613.258-1.177.357-1.748.184-1.03.573-1.737 2.007-1.846l.177-.003c.158 0 .317.008.508.017.089.005.175.011.33.011l.183-.003a.986.986 0 0 0 .173-.025.873.873 0 0 0 .144-.116c-.059-.084-.116-.179-.094-.183-1.081-.201-2.018-.3-2.862-.3l-.321.005a31.02 31.02 0 0 0-1.581.092l-1.93.161c-.677.052-1.456.104-2.266.104l-.496-.007c-1.649-.046-2.989-.943-4.541-1.979l-.932-.62.976-.545c.853-.476 1.666-.739 2.482-.804.133-.009.265-.014.397-.014.814 0 1.653.203 2.646.637.985.436 2.021.746 2.997.897.06.01.121.015.239.015.032 0 .068 0 .109-.002.728-.059 1.312-.612 1.596-.935.773-.892 1.71-1.368 2.863-1.459.139-.009.599-.018.599-.018.114-.009.228-.03.368-.054.145-.026.239-.053.29-.062a1.035 1.035 0 0 0-.427-.37c-.19-.074-.474-.077-.771-.081-.184 0-.367-.001-.548-.017-.86-.07-2.033-.166-3.021-1.215-.235-.25-.469-.36-.89-.36h-.028c-.421.033-.91.231-1.387.422l-1.154.456c-.772.309-1.57.626-2.387.874a2.639 2.639 0 0 1-.551.1 4.317 4.317 0 0 1-.323.012c-.139 0-.659-.023-.837-.023l-.554.014-.416-1.347 2.314-1.687a292.284 292.284 0 0 1 4.827-3.476 5.176 5.176 0 0 1 3.006-.952c.161 0 .326.008.489.02.07.007.143.01.213.01.092 0 .186-.005.28-.012.246-.018.496-.059.845-.114.165-.023.689-.087.689-.087.124-.009.246-.014.365-.014 1.486 0 2.582.778 3.252 2.314 1.162 2.65 1.592 5.188 1.317 7.756-.153 1.426.446 2.738 1.092 4.156.224.491.447.982.637 1.476.285.749.568 1.551.617 2.388.107 1.843-.683 3.291-2.283 4.187m-16.371-5.526c-.246.529-.609.999-.932 1.399-.67.843-1.25 1.239-2.009 1.294-.797 0-1.41-.577-1.856-1.08-.577-.649-1.043-1.379-1.516-2.117a30.61 30.61 0 0 0-.593-.917l-.133-.293.017-.17c.144-1.221.87-1.532 1.448-1.577l.166-.008h.011c.266 0 .506.07.706.13l.194.053 3.255.775c.681.161 1.121.465 1.343.922.218.45.186.97-.101 1.589m-7.045 2.599c-.482 1.552-2.619 4.008-4.748 4.174-.115.006-.231.01-.345.01-1.478 0-2.789-.584-4.006-1.784-1.002-.993-2.246-1.488-3.435-1.909-.276-.099-.556-.189-.838-.28a28.967 28.967 0 0 1-.738-.245c-1.646-.57-2.799-1.57-3.53-3.061-.268-.553-.58-1.106-.888-1.657-.329-.587-.668-1.191-.967-1.813-.899-1.867-1.038-3.865-.424-6.111.496-1.816 2.749-3.609 4.725-3.762.096-.006.193-.011.286-.011.212 0 .415.019.609.058.252.047.486.072.714.072a3.138 3.138 0 0 0 1.481-.382c.472-.25.956-.394 1.438-.434a3.357 3.357 0 0 1 1.85.404c.151.082.314.144.518.226.197.079.395.161.585.255 2.827 1.433 3.209 2.155 2.915 5.517l-.055.607-2.052.052c-.669.018-1.328.033-2.043.061l-.21.011c-.152.011-.192.026-.156.055 0 .1 0 .235.361.255l.293.008c.305 0 .614-.023.909-.045l1.646-.131c.249-.018.5-.032.767-.035.644 0 1.459.295 1.702 1.704l.1.582-1.139.382c-.366.124-.733.25-1.107.353-.464.13-.932.251-1.453.387-.694.18-1.383.36-2.065.565a3.418 3.418 0 0 0-1.012.519c-.276.201-.21.298-.147.401.092-.007.247-.056.458-.126a53.669 53.669 0 0 1 4.011-1.128c.118-.027.237-.045.356-.054.082-.006.163-.01.241-.01.208 0 .413.019.612.041.139.013.28.025.415.03l.435.013.503 1.186-.335.289c.286-.146.571-.228.943-.253.366 0 1.043.131 1.46 1.013.54 1.13.968 2.063 1.345 2.935.174.397.084.839.015 1.066m-12.695 4.195a2.242 2.242 0 0 1 1.006-1.014l.128-.024.095-.006h.01c.348 0 .583.233.835.481.055.057.111.115.164.158l.532.454-1.732 1.941-.503-.648c-.057-.072-.118-.141-.211-.25-.237-.264-.56-.627-.324-1.092m4.526 5.986c-.523 1.878-2.683 3.965-4.621 4.464l-.603.153-.21-.583c-.441-1.212.362-2.008.903-2.543.891-.88 2-1.975 3.732-2.343l1.102-.235-.303 1.087zm-6.563-36.715l.346-.356c.402-.419.816-.852 1.331-1.184.753-.485 1.072-1.105 1.004-1.952-.104-1.344.56-2.353 1.924-2.915a7.463 7.463 0 0 1 2.24-.558 6.073 6.073 0 0 1 3.51.803c.387.221.783.422 1.183.625.275.141.554.282.83.429 1.669.894 2.459 2.228 2.347 3.965a574.078 574.078 0 0 1-.545 7.774c-.027.358-.196.644-.344.898l-.105.194-.198.419-1.339-.081-.206-1.02a35.38 35.38 0 0 0-.215-1.037s-.332-1.51-.459-2.078l.426 5.433-1.184-.813c-.17-.118-.317-.213-.539-.358-.272-.175-.506-.328-.709-.531a30.444 30.444 0 0 1-.879-.918c-.364-.388-.738-.791-1.129-1.152a4.303 4.303 0 0 0-1.207-.778.742.742 0 0 0-.304-.068h-.012c-.057.003-.099.015-.195.189.012.024.089.117.306.231 1.124.59 1.992 1.512 2.658 2.818.08.158.116.31.151.47l.353 1.332-1.02-.141a5.425 5.425 0 0 0-.416-.038c-.305-.024-.62-.047-.93-.191-1.002-.466-2.204-.943-3.535-.943a6.52 6.52 0 0 0-.587.033l-.166.006c-.952 0-1.379-.664-1.618-1.163-.267-.562-.595-1.115-.923-1.673l-.477-.818c-.991-1.759-.772-3.436.632-4.853m18.227 13.273c-.284.479-.616.967-.984 1.453-.18.232-.371.454-.609.731-.286.335-.558.651-.784.991-.253.387-.461.816-.723 1.359-.117.238-.763 1.514-.763 1.514l-.655-.54c-1.611-1.327-2.374-3.024-2.095-4.66.213-1.234.963-2.312 1.696-3.368l.376-.543c.283-.42.738-.673 1.277-.715l.157-.007h.009c.382 0 .773.102 1.132.292.588.314 1.094.717 1.587 1.109.749.594.895 1.509.379 2.384m-3.215-18.908c1.356-1.645 3.118-2.596 5.1-2.751.187-.014.376-.021.566-.021.71 0 1.438.103 2.159.306 1.359.382 2.452.97 3.342 1.795a83.973 83.973 0 0 1 3.513 3.418c.373.384.664.929.869 1.621.264.893.801 1.641 1.792 2.499l.261.215c.159.131.317.26.468.403.789.76.858 1.447.778 1.89-.079.419-.366 1.002-1.291 1.393-1.663.702-3.044 1.139-4.345 1.374-1.105.198-2.017.681-2.955 1.558-.545.509-1.178.927-1.816 1.344-.223.149-.445.295-.662.45l-.484.34-.922-.97.013-.289c.054-1.333 1.048-2.051 1.777-2.578l.157-.111a6.293 6.293 0 0 0 1.763-1.921c-.49.375-.983.578-1.501.619l-.193.006c-.494 0-1.01-.144-1.577-.447l-.292-.162c-.243-.135-.474-.264-.711-.351l-.375-.133c-.648-.216-1.425-.479-1.892-1.126-.364.929-.706 1.805-.838 2.709-.044.284.45.972.715 1.342l.196.275c.314.449 1.149 1.648-.187 2.752l-.35.289-.4-.208c-1.926-.998-2.861-2.593-2.782-4.742l.025-.713c.058-1.687.117-3.431.372-5.152.189-1.281.29-2.783-.384-4.196l-.186-.392.277-.335zm27.006 30.353c-.189-.91-.551-1.746-.945-2.658-.284-.652-.605-1.39-.832-2.151l-.048-.164c-.382-1.279-.777-2.604-.681-3.939.262-3.616-1.024-6.955-3.525-9.163-.741-.655-.897-1.292-.533-2.203.548-1.374.38-1.987-.756-2.738-1.472-.971-2.236-2.359-2.975-3.705l-.121-.218c-.832-1.507-1.772-3.063-3.329-4.055-.446-.285-.811-.648-1.261-1.099-1.608-1.602-3.72-2.483-5.946-2.483a8.352 8.352 0 0 0-4.311 1.207c-.655.396-1.299.85-1.991 1.337-.632.445-1.239.685-1.861.733a3.602 3.602 0 0 1-.233.008c-.676 0-1.34-.227-2.033-.697-1.055-.721-2.421-1.095-4.429-1.183-.084 0-.166.003-.249.009-2.029.158-4.128 2.18-4.515 3.749-.335 1.361-1.014 2.338-2.201 3.166-1.45 1.013-2.818 3.886-1.732 5.777.408.709.743 1.45 1.068 2.167l.156.347c.218.478.434 1.105.174 1.706-.261.604-.885.88-1.398 1.053-.565.191-1.15.49-1.694.862-.805.546-1.23 1.437-1.683 2.383l-.295.604c-1.244 2.461-.978 5.808.645 8.14.19.272.306.553.421.828.046.119.097.237.151.35.931 1.901 1.894 3.869 3.987 4.808.647.29 1.159.555 1.352 1.093.199.548-.037 1.102-.395 1.824-.427.873-.872 1.737-1.381 2.729a117.68 117.68 0 0 0-1.747 3.501c-.18.385-.393.76-.606 1.136-.429.76-.838 1.489-.959 2.288.348-.037.697-.079 1.033-.079l.284.005c1.749.055 3.38.622 4.853 1.684.521.377 1.06.728 1.599 1.083l.067.045.101-.079c1.115-.873 2.267-1.776 3.359-2.703.237-.204.436-.516.644-.85.138-.216.275-.432.428-.635l.174-.24c.233-.324.496-.691.888-.941.837-.531 1.45-1.26 1.874-2.229.136-.311.329-.563.516-.811.081-.102.161-.21.244-.327l.447-.649.579.537c.923.854 1.19 1.82 1.386 2.736.082.388.153.782.225 1.193.144.809.287 1.572.542 2.283.336-.034.676-.052 1.018-.052l.226.004a6.119 6.119 0 0 1-.712-2.373c-.166-1.733-.391-3.176-.94-4.576-.634-1.611-.253-3.262 1.046-4.529.409-.402.91-.636 1.448-.677l.158-.007h.01c.977 0 1.805.664 2.06 1.65l.048.182c.285 1.076.639 2.417-.1 3.75-.196.352-.076.421.206.563.084-.015.295-.258.446-.431.556-.635.726-1.225.545-1.914-.099-.389-.23-.975-.198-1.562.025-.468.397-1.091.914-1.274.085-.031.177-.049.365-.059.432 0 .863.22 1.099.437.054.049.102.1.148.153l-.505-1.061.304-.339c.493-.549.919-.973 1.612-1.022.421 0 .797.196 1.266.516 1.363.924 1.871 2.32 2.161 3.434l.577 2.217c.098.374.306.526.727.526.145-.012.275-.05.332-.05.016 0 .027.003.03.011.007-.074-.009-.224.018-.224h.004c-1.135-.863-1.251-2.01-1.356-3.029-.047-.459-.094-.935-.237-1.373l-.38-1.177 1.197.302c2.402.6 4.819 3.611 4.462 5.552-.465 2.541-1.492 4.389-3.138 5.649-1.556 1.189-3.113 1.864-4.762 2.062l-.396.047c-.87.1-1.703.198-2.45.526.575.36 1.109.749 1.583 1.185.683-.2 1.372-.351 2.054-.494.54-.113 1.074-.23 1.604-.369 2.866-.766 4.413-2.006 5.173-4.149.183-.508.441-.965.69-1.408.134-.231.266-.467.386-.707.107-.221.222-.438.339-.661.293-.554.598-1.128.753-1.703.204-.761.593-1.646 1.793-1.74l.211-.007c.089 0 .184.004.331.01.212-.015.538-.187.857-.355.822-.429 1.637-.912 2.604-1.483.107-.062.329-.193.367-.255.962-1.621 1.871-3.153 1.47-5.088M477.228 178.763c-.015.231-.078.439-.166.727l-.101.351-.347 1.317-.943-1.187c.075.645.204 1.284.334 1.921.304 1.477.618 3.007.219 4.632l-.21.848-.772-.407c-1.015-.533-1.118-1.428-1.107-2.053.032-2.024-.671-3.964-1.292-5.675l-.143-.396c-.934-2.566-1.899-5.219-1.776-8.151.018-.406-.074-.839-.172-1.299-.058-.281-.117-.562-.155-.835l-.031-.188c-.081-.449-.233-1.287.666-1.921l.509-.359.403.473.167.177c.153.158.344.353.468.611.428.863.846 1.733 1.265 2.601.635 1.318 1.27 2.634 1.932 3.936.682 1.343 1.363 2.971 1.252 4.877m7.055-11.183c-.08-.1-.158-.204-.232-.308-.092.248-.191.494-.278.744a306.293 306.293 0 0 0-1.338 3.99c-.483 1.461-.966 2.925-1.473 4.38-.148.425-.463.741-.758 1.039a2.772 2.772 0 0 0-.227.243l-.294.329-1.21-.341-.343-.98a86.924 86.924 0 0 0-.575-1.618l-.11-.31c-.124-.347-.241-.679-.412-.964-.209-.35-.429-.697-.652-1.048-.676-1.064-1.375-2.164-1.805-3.446a128.994 128.994 0 0 0-1.331-3.715l-.678-1.85a2.461 2.461 0 0 1-.131-.611s-.528-5.466-.651-6.673a1.963 1.963 0 0 0-.175-.643c-.125-.258-.292-.372-.539-.372l-.192.021c-.071.017-.22.054-.26.459a179.8 179.8 0 0 0-.31 3.481c-.034.439-.049.884-.065 1.347-.033.934-.067 1.9-.28 2.842-.968 4.287-.25 8.369.789 13.259.211.99.53 1.978.836 2.935.26.805.527 1.639.737 2.478.515 2.076.968 4.249 1.367 6.165l.223 1.068c.29 1.371.587 2.786.162 4.294l1.732.736 1.875-4.283c.117-.427.24-.853.383-1.344.26-.892.528-1.816.726-2.731.224-1.022.404-2.076.595-3.203.109-.629.216-1.257.334-1.884.087-.458.228-.929.43-1.44.185-.468.383-.932.616-1.487.313-.738.637-1.502.908-2.263.447-1.254.863-2.518 1.28-3.78.265-.804.531-1.606.803-2.407.079-.233.2-.448.32-.656.048-.084.195-.343.21-.377a3.02 3.02 0 0 1-.007-1.076" fill-rule="nonzero"/></svg>