<svg xmlns="http://www.w3.org/2000/svg" viewBox="0 0 59.78 59.78"><g id="b99c4dc4-0ca2-44f0-a6d2-d74e1f79e96e" data-name="Layer 2"><g id="b5fff184-918f-41be-8b54-975c8034d4ff" data-name="Layer 1"><path d="M19.8,36.05A16.25,16.25,0,0,1,8.31,8.31a16.25,16.25,0,0,1,23,23A16.14,16.14,0,0,1,19.8,36.05Z" fill="#fff"/><path d="M19.8,4.05A15.74,15.74,0,0,1,30.93,30.93,15.74,15.74,0,0,1,8.67,8.67,15.6,15.6,0,0,1,19.8,4.05m0-1A16.75,16.75,0,1,0,31.64,8,16.69,16.69,0,0,0,19.8,3.05Z"/><path d="M19.8,39.1A19.3,19.3,0,0,1,6.15,6.15a19.3,19.3,0,1,1,13.65,33Z"/><path d="M19.8,1A18.8,18.8,0,0,1,33.09,33.09,18.79,18.79,0,0,1,6.51,6.51,18.68,18.68,0,0,1,19.8,1m0-1a19.8,19.8,0,1,0,14,5.8A19.72,19.72,0,0,0,19.8,0Z"/><path d="M19.8,36.43A16.63,16.63,0,0,1,8,8,16.63,16.63,0,0,1,31.56,31.56,16.53,16.53,0,0,1,19.8,36.43Z" fill="#fff"/><path d="M19.8,3.67A16.13,16.13,0,0,1,31.21,31.21,16.14,16.14,0,0,1,8.39,8.39,16,16,0,0,1,19.8,3.67m0-1a17.13,17.13,0,1,0,12.12,5,17.1,17.1,0,0,0-12.12-5Z"/><rect x="33.04" y="33.04" width="3.29" height="3.29" transform="translate(-14.37 34.68) rotate(-45)" fill="#fff"/><path d="M34.68,33.06l1.62,1.62L34.68,36.3l-1.62-1.62,1.62-1.62m0-1.41-3,3,3,3,3-3-3-3Z"/><polygon points="33.76 37.93 37.93 33.76 59.06 53.53 53.53 59.06 33.76 37.93"/><path d="M37.94,34.46,58.35,53.54l-4.81,4.81L34.46,37.94l3.48-3.48m0-1.39-4.85,4.85L53.52,59.78l6.26-6.26L37.92,33.07Z"/></g></g></svg>