<svg viewBox="0 0 62 62" xmlns="http://www.w3.org/2000/svg" fill-rule="evenodd" clip-rule="evenodd" stroke-linecap="round" stroke-linejoin="round" stroke-miterlimit="1.5"><circle cx="30.827" cy="31.016" r="29.5" stroke="#000" stroke-width="1.5"/><g fill="#fff" fill-rule="nonzero"><path d="M30.649 11.929c-5.205 0-5.857.022-7.901.115-2.04.093-3.434.417-4.653.891a9.388 9.388 0 0 0-3.394 2.211 9.388 9.388 0 0 0-2.211 3.394c-.474 1.219-.797 2.612-.891 4.652-.093 2.044-.115 2.697-.115 7.902s.022 5.858.115 7.902c.094 2.04.417 3.433.891 4.652a9.4 9.4 0 0 0 2.211 3.395 9.398 9.398 0 0 0 3.394 2.21c1.219.474 2.613.798 4.653.891 2.044.093 2.696.115 7.901.115s5.858-.022 7.902-.115c2.04-.093 3.433-.417 4.652-.891a9.402 9.402 0 0 0 3.395-2.21 9.397 9.397 0 0 0 2.21-3.395c.474-1.219.798-2.612.891-4.652.093-2.044.116-2.697.116-7.902s-.023-5.858-.116-7.902c-.093-2.04-.417-3.433-.891-4.652a9.385 9.385 0 0 0-2.21-3.394 9.392 9.392 0 0 0-3.395-2.211c-1.219-.474-2.612-.798-4.652-.891-2.044-.093-2.697-.115-7.902-.115zm0 3.453c5.118 0 5.724.02 7.745.112 1.868.085 2.883.397 3.558.66a5.937 5.937 0 0 1 2.204 1.433 5.94 5.94 0 0 1 1.434 2.204c.262.675.574 1.69.66 3.559.092 2.021.111 2.627.111 7.744s-.019 5.724-.111 7.744c-.086 1.869-.398 2.884-.66 3.559a5.94 5.94 0 0 1-1.434 2.204 5.937 5.937 0 0 1-2.204 1.433c-.675.263-1.69.575-3.558.66-2.021.092-2.627.112-7.745.112-5.117 0-5.723-.02-7.744-.112-1.869-.085-2.883-.397-3.559-.66a5.933 5.933 0 0 1-2.203-1.433 5.94 5.94 0 0 1-1.434-2.204c-.262-.675-.575-1.69-.66-3.559-.092-2.02-.112-2.627-.112-7.744s.02-5.723.112-7.744c.085-1.869.398-2.884.66-3.559a5.94 5.94 0 0 1 1.434-2.204 5.933 5.933 0 0 1 2.203-1.433c.676-.263 1.69-.575 3.559-.66 2.021-.092 2.627-.112 7.744-.112z"/><path d="M30.649 37.482a6.388 6.388 0 1 1 0-12.776 6.388 6.388 0 1 1 0 12.776zm0-16.23c-5.435 0-9.841 4.407-9.841 9.842 0 5.435 4.406 9.842 9.841 9.842 5.436 0 9.842-4.407 9.842-9.842 0-5.435-4.406-9.842-9.842-9.842zM43.18 20.864a2.3 2.3 0 1 1-4.599 0 2.3 2.3 0 0 1 4.599 0z"/></g></svg>