<?xml version="1.0" encoding="UTF-8" standalone="no"?><!DOCTYPE svg PUBLIC "-//W3C//DTD SVG 1.1//EN" "http://www.w3.org/Graphics/SVG/1.1/DTD/svg11.dtd"><svg width="100%" height="100%" viewBox="0 0 61 62" version="1.1" xmlns="http://www.w3.org/2000/svg" xmlns:xlink="http://www.w3.org/1999/xlink" xml:space="preserve" xmlns:serif="http://www.serif.com/" style="fill-rule:evenodd;clip-rule:evenodd;stroke-linecap:round;stroke-linejoin:round;stroke-miterlimit:1.5;"><g><circle cx="30.642" cy="31.016" r="29.5" style="stroke:#000;stroke-width:1.5px;"/><path d="M30.642,10.016c-11.598,0 -21,9.402 -21,21c0,8.897 5.535,16.495 13.347,19.555c-0.183,-1.661 -0.349,-4.21 0.073,-6.024c0.382,-1.639 2.463,-10.438 2.463,-10.438c0,0 -0.628,-1.258 -0.628,-3.118c0,-2.92 1.692,-5.1 3.799,-5.1c1.792,0 2.657,1.345 2.657,2.958c0,1.802 -1.147,4.496 -1.739,6.992c-0.494,2.09 1.048,3.795 3.11,3.795c3.732,0 6.601,-3.936 6.601,-9.617c0,-5.028 -3.612,-8.543 -8.771,-8.543c-5.976,0 -9.483,4.482 -9.483,9.113c0,1.805 0.695,3.74 1.563,4.793c0.172,0.208 0.197,0.39 0.146,0.602c-0.16,0.663 -0.514,2.09 -0.584,2.382c-0.091,0.384 -0.304,0.466 -0.702,0.28c-2.623,-1.221 -4.262,-5.055 -4.262,-8.135c0,-6.625 4.813,-12.708 13.875,-12.708c7.285,0 12.946,5.191 12.946,12.128c0,7.238 -4.563,13.062 -10.897,13.062c-2.128,0 -4.128,-1.105 -4.813,-2.411c0,0 -1.053,4.01 -1.308,4.992c-0.475,1.824 -1.754,4.111 -2.61,5.505c1.964,0.609 4.052,0.937 6.217,0.937c11.598,0 21,-9.402 21,-21c0,-11.598 -9.402,-21 -21,-21" style="fill:#fff;fill-rule:nonzero;"/></g></svg>