<?xml version="1.0" encoding="UTF-8" standalone="no"?><!DOCTYPE svg PUBLIC "-//W3C//DTD SVG 1.1//EN" "http://www.w3.org/Graphics/SVG/1.1/DTD/svg11.dtd"><svg width="100%" height="100%" viewBox="0 0 62 62" version="1.1" xmlns="http://www.w3.org/2000/svg" xmlns:xlink="http://www.w3.org/1999/xlink" xml:space="preserve" xmlns:serif="http://www.serif.com/" style="fill-rule:evenodd;clip-rule:evenodd;stroke-linecap:round;stroke-linejoin:round;stroke-miterlimit:1.5;"><g><circle cx="30.827" cy="31.016" r="29.5" style="stroke:#000;stroke-width:1.5px;"/><g><path d="M30.649,11.929c-5.205,0 -5.857,0.022 -7.901,0.115c-2.04,0.093 -3.434,0.417 -4.653,0.891c-1.26,0.49 -2.329,1.145 -3.394,2.211c-1.066,1.065 -1.721,2.134 -2.211,3.394c-0.474,1.219 -0.797,2.612 -0.891,4.652c-0.093,2.044 -0.115,2.697 -0.115,7.902c0,5.205 0.022,5.858 0.115,7.902c0.094,2.04 0.417,3.433 0.891,4.652c0.49,1.26 1.145,2.329 2.211,3.395c1.065,1.065 2.134,1.72 3.394,2.21c1.219,0.474 2.613,0.798 4.653,0.891c2.044,0.093 2.696,0.115 7.901,0.115c5.205,0 5.858,-0.022 7.902,-0.115c2.04,-0.093 3.433,-0.417 4.652,-0.891c1.261,-0.49 2.329,-1.145 3.395,-2.21c1.065,-1.066 1.721,-2.135 2.21,-3.395c0.474,-1.219 0.798,-2.612 0.891,-4.652c0.093,-2.044 0.116,-2.697 0.116,-7.902c0,-5.205 -0.023,-5.858 -0.116,-7.902c-0.093,-2.04 -0.417,-3.433 -0.891,-4.652c-0.489,-1.26 -1.145,-2.329 -2.21,-3.394c-1.066,-1.066 -2.134,-1.721 -3.395,-2.211c-1.219,-0.474 -2.612,-0.798 -4.652,-0.891c-2.044,-0.093 -2.697,-0.115 -7.902,-0.115Zm0,3.453c5.118,0 5.724,0.02 7.745,0.112c1.868,0.085 2.883,0.397 3.558,0.66c0.895,0.347 1.533,0.763 2.204,1.433c0.671,0.671 1.086,1.309 1.434,2.204c0.262,0.675 0.574,1.69 0.66,3.559c0.092,2.021 0.111,2.627 0.111,7.744c0,5.117 -0.019,5.724 -0.111,7.744c-0.086,1.869 -0.398,2.884 -0.66,3.559c-0.348,0.895 -0.763,1.533 -1.434,2.204c-0.671,0.67 -1.309,1.086 -2.204,1.433c-0.675,0.263 -1.69,0.575 -3.558,0.66c-2.021,0.092 -2.627,0.112 -7.745,0.112c-5.117,0 -5.723,-0.02 -7.744,-0.112c-1.869,-0.085 -2.883,-0.397 -3.559,-0.66c-0.894,-0.347 -1.533,-0.763 -2.203,-1.433c-0.671,-0.671 -1.086,-1.309 -1.434,-2.204c-0.262,-0.675 -0.575,-1.69 -0.66,-3.559c-0.092,-2.02 -0.112,-2.627 -0.112,-7.744c0,-5.117 0.02,-5.723 0.112,-7.744c0.085,-1.869 0.398,-2.884 0.66,-3.559c0.348,-0.895 0.763,-1.533 1.434,-2.204c0.67,-0.67 1.309,-1.086 2.203,-1.433c0.676,-0.263 1.69,-0.575 3.559,-0.66c2.021,-0.092 2.627,-0.112 7.744,-0.112Z" style="fill:#fff;fill-rule:nonzero;"/><path d="M30.649,37.482c-3.528,0 -6.388,-2.86 -6.388,-6.388c0,-3.528 2.86,-6.388 6.388,-6.388c3.529,0 6.389,2.86 6.389,6.388c0,3.528 -2.86,6.388 -6.389,6.388Zm0,-16.23c-5.435,0 -9.841,4.407 -9.841,9.842c0,5.435 4.406,9.842 9.841,9.842c5.436,0 9.842,-4.407 9.842,-9.842c0,-5.435 -4.406,-9.842 -9.842,-9.842Z" style="fill:#fff;fill-rule:nonzero;"/><path d="M43.18,20.864c0,1.27 -1.03,2.299 -2.3,2.299c-1.27,0 -2.3,-1.029 -2.3,-2.299c0,-1.271 1.03,-2.3 2.3,-2.3c1.27,0 2.3,1.029 2.3,2.3Z" style="fill:#fff;fill-rule:nonzero;"/></g></g></svg>