<svg viewBox="0 0 233 33" xmlns="http://www.w3.org/2000/svg" fill-rule="evenodd" clip-rule="evenodd" stroke-linejoin="round" stroke-miterlimit="1.414"><g fill="#edc1df" fill-rule="nonzero" stroke="#000" stroke-width="1.5"><path d="M1.303 28.152c.838.796 3.937 3.267 9.214 3.267 5.906 0 9.633-3.979 9.633-8.293 0-5.402-4.691-7.832-8.753-9.465-3.393-1.382-4.942-2.722-4.942-4.691 0-1.34 1.298-2.931 3.685-2.931 2.304 0 5.487 2.094 5.822 2.303.503.335 1.131 0 1.466-.502l1.591-2.388c.293-.418.168-1.13-.251-1.382-.838-.628-4.104-2.806-8.376-2.806-6.659 0-9.424 4.314-9.424 8.041 0 4.942 3.937 7.455 7.874 9.047 3.518 1.424 5.319 2.89 5.319 5.026 0 1.8-1.633 3.224-3.811 3.224-2.722 0-6.115-2.471-6.324-2.596-.377-.293-1.089-.293-1.424.293l-1.508 2.597c-.377.67-.167.879.209 1.256zM23.417 16.383c0 8.377 6.659 15.036 15.035 15.036 8.377 0 15.078-6.659 15.078-15.036 0-8.376-6.701-15.119-15.078-15.119-8.376 0-15.035 6.743-15.035 15.119zm5.444 0c0-5.277 4.314-9.674 9.591-9.674 5.277 0 9.633 4.397 9.633 9.674 0 5.277-4.356 9.591-9.633 9.591-5.277 0-9.591-4.314-9.591-9.591zM68.272 30.204c0 .419.335.796.796.796h17.045a.795.795 0 0 0 .796-.796V26.77a.795.795 0 0 0-.796-.796H73.716v-7.329h10.345a.795.795 0 0 0 .796-.796v-3.476a.824.824 0 0 0-.796-.796H73.716V6.709h12.397a.795.795 0 0 0 .796-.796V2.479a.795.795 0 0 0-.796-.796H69.068a.795.795 0 0 0-.796.796v27.725zM90.343 29.827c-.335.545 0 1.173.754 1.173h4.523c.335 0 .587-.209.712-.377l5.906-9.591h.125l5.989 9.591c.084.168.377.377.712.377h4.523c.712 0 1.048-.586.712-1.173l-8.711-13.862 8.418-13.109c.335-.545 0-1.173-.712-1.173h-4.858c-.335 0-.586.209-.67.377l-5.445 8.879h-.041L96.919 2.06c-.126-.168-.335-.377-.67-.377H91.39c-.712 0-1.047.628-.712 1.173l8.377 13.109-8.712 13.862zM116.854 16.383c0 8.377 6.743 15.036 15.119 15.036 3.728 0 7.33-1.299 10.178-4.063.293-.293.377-.837.041-1.13l-2.596-2.681c-.251-.251-.712-.293-1.047 0-1.759 1.424-3.895 2.387-6.408 2.387-5.361 0-9.381-4.439-9.381-9.674 0-5.277 3.978-9.759 9.339-9.759 2.345 0 4.691.922 6.45 2.471.335.335.754.335 1.047 0l2.555-2.638c.335-.335.335-.838-.042-1.173-2.848-2.555-5.906-3.895-10.136-3.895a15.086 15.086 0 0 0-15.119 15.119zM147.637 30.204c0 .419.377.796.796.796h3.895a.824.824 0 0 0 .796-.796V2.479a.824.824 0 0 0-.796-.796h-3.895a.824.824 0 0 0-.796.796v27.725zM164.683 30.204c0 .419.377.796.796.796h3.894a.824.824 0 0 0 .796-.796V6.709h6.408a.795.795 0 0 0 .796-.796V2.479a.795.795 0 0 0-.796-.796h-18.302a.795.795 0 0 0-.796.796v3.434c0 .419.335.796.796.796h6.408v23.495zM181.729 30.204c0 .419.335.796.795.796h17.046a.795.795 0 0 0 .796-.796V26.77a.795.795 0 0 0-.796-.796h-12.397v-7.329h10.345a.795.795 0 0 0 .796-.796v-3.476a.824.824 0 0 0-.796-.796h-10.345V6.709h12.397a.795.795 0 0 0 .796-.796V2.479a.795.795 0 0 0-.796-.796h-17.046a.795.795 0 0 0-.795.796v27.725zM206.355 30.204c0 .419.335.796.754.796h9.926c8.083 0 14.7-6.575 14.7-14.7 0-8.042-6.617-14.617-14.7-14.617h-9.926c-.419 0-.754.377-.754.796v27.725zm5.402-4.314V6.751h4.775c5.445 0 9.423 4.104 9.423 9.549 0 5.486-3.978 9.59-9.423 9.59h-4.775z"/></g></svg>