<?xml version="1.0" encoding="UTF-8" standalone="no"?><!DOCTYPE svg PUBLIC "-//W3C//DTD SVG 1.1//EN" "http://www.w3.org/Graphics/SVG/1.1/DTD/svg11.dtd"><svg width="100%" height="100%" viewBox="0 0 233 33" version="1.1" xmlns="http://www.w3.org/2000/svg" xmlns:xlink="http://www.w3.org/1999/xlink" xml:space="preserve" xmlns:serif="http://www.serif.com/" style="fill-rule:evenodd;clip-rule:evenodd;stroke-linejoin:round;stroke-miterlimit:1.41421;"><g><path d="M1.303,28.152c0.838,0.796 3.937,3.267 9.214,3.267c5.906,0 9.633,-3.979 9.633,-8.293c0,-5.402 -4.691,-7.832 -8.753,-9.465c-3.393,-1.382 -4.942,-2.722 -4.942,-4.691c0,-1.34 1.298,-2.931 3.685,-2.931c2.304,0 5.487,2.094 5.822,2.303c0.503,0.335 1.131,0 1.466,-0.502l1.591,-2.388c0.293,-0.418 0.168,-1.13 -0.251,-1.382c-0.838,-0.628 -4.104,-2.806 -8.376,-2.806c-6.659,0 -9.424,4.314 -9.424,8.041c0,4.942 3.937,7.455 7.874,9.047c3.518,1.424 5.319,2.89 5.319,5.026c0,1.8 -1.633,3.224 -3.811,3.224c-2.722,0 -6.115,-2.471 -6.324,-2.596c-0.377,-0.293 -1.089,-0.293 -1.424,0.293l-1.508,2.597c-0.377,0.67 -0.167,0.879 0.209,1.256Z" style="fill:#edc1df;fill-rule:nonzero;stroke:#000;stroke-width:1.5px;"/><path d="M23.417,16.383c0,8.377 6.659,15.036 15.035,15.036c8.377,0 15.078,-6.659 15.078,-15.036c0,-8.376 -6.701,-15.119 -15.078,-15.119c-8.376,0 -15.035,6.743 -15.035,15.119Zm5.444,0c0,-5.277 4.314,-9.674 9.591,-9.674c5.277,0 9.633,4.397 9.633,9.674c0,5.277 -4.356,9.591 -9.633,9.591c-5.277,0 -9.591,-4.314 -9.591,-9.591Z" style="fill:#edc1df;fill-rule:nonzero;stroke:#000;stroke-width:1.5px;"/><path d="M68.272,30.204c0,0.419 0.335,0.796 0.796,0.796l17.045,0c0.461,0 0.796,-0.377 0.796,-0.796l0,-3.434c0,-0.419 -0.335,-0.796 -0.796,-0.796l-12.397,0l0,-7.329l10.345,0c0.419,0 0.796,-0.335 0.796,-0.796l0,-3.476c0,-0.419 -0.377,-0.796 -0.796,-0.796l-10.345,0l0,-6.868l12.397,0c0.461,0 0.796,-0.377 0.796,-0.796l0,-3.434c0,-0.419 -0.335,-0.796 -0.796,-0.796l-17.045,0c-0.461,0 -0.796,0.377 -0.796,0.796l0,27.725Z" style="fill:#edc1df;fill-rule:nonzero;stroke:#000;stroke-width:1.5px;"/><path d="M90.343,29.827c-0.335,0.545 0,1.173 0.754,1.173l4.523,0c0.335,0 0.587,-0.209 0.712,-0.377l5.906,-9.591l0.125,0l5.989,9.591c0.084,0.168 0.377,0.377 0.712,0.377l4.523,0c0.712,0 1.048,-0.586 0.712,-1.173l-8.711,-13.862l8.418,-13.109c0.335,-0.545 0,-1.173 -0.712,-1.173l-4.858,0c-0.335,0 -0.586,0.209 -0.67,0.377l-5.445,8.879l-0.041,0l-5.361,-8.879c-0.126,-0.168 -0.335,-0.377 -0.67,-0.377l-4.859,0c-0.712,0 -1.047,0.628 -0.712,1.173l8.377,13.109l-8.712,13.862Z" style="fill:#edc1df;fill-rule:nonzero;stroke:#000;stroke-width:1.5px;"/><path d="M116.854,16.383c0,8.377 6.743,15.036 15.119,15.036c3.728,0 7.33,-1.299 10.178,-4.063c0.293,-0.293 0.377,-0.837 0.041,-1.13l-2.596,-2.681c-0.251,-0.251 -0.712,-0.293 -1.047,0c-1.759,1.424 -3.895,2.387 -6.408,2.387c-5.361,0 -9.381,-4.439 -9.381,-9.674c0,-5.277 3.978,-9.759 9.339,-9.759c2.345,0 4.691,0.922 6.45,2.471c0.335,0.335 0.754,0.335 1.047,0l2.555,-2.638c0.335,-0.335 0.335,-0.838 -0.042,-1.173c-2.848,-2.555 -5.906,-3.895 -10.136,-3.895c-8.376,0 -15.119,6.743 -15.119,15.119Z" style="fill:#edc1df;fill-rule:nonzero;stroke:#000;stroke-width:1.5px;"/><path d="M147.637,30.204c0,0.419 0.377,0.796 0.796,0.796l3.895,0c0.419,0 0.796,-0.377 0.796,-0.796l0,-27.725c0,-0.419 -0.377,-0.796 -0.796,-0.796l-3.895,0c-0.419,0 -0.796,0.377 -0.796,0.796l0,27.725Z" style="fill:#edc1df;fill-rule:nonzero;stroke:#000;stroke-width:1.5px;"/><path d="M164.683,30.204c0,0.419 0.377,0.796 0.796,0.796l3.894,0c0.419,0 0.796,-0.377 0.796,-0.796l0,-23.495l6.408,0c0.461,0 0.796,-0.377 0.796,-0.796l0,-3.434c0,-0.419 -0.335,-0.796 -0.796,-0.796l-18.302,0c-0.461,0 -0.796,0.377 -0.796,0.796l0,3.434c0,0.419 0.335,0.796 0.796,0.796l6.408,0l0,23.495Z" style="fill:#edc1df;fill-rule:nonzero;stroke:#000;stroke-width:1.5px;"/><path d="M181.729,30.204c0,0.419 0.335,0.796 0.795,0.796l17.046,0c0.461,0 0.796,-0.377 0.796,-0.796l0,-3.434c0,-0.419 -0.335,-0.796 -0.796,-0.796l-12.397,0l0,-7.329l10.345,0c0.419,0 0.796,-0.335 0.796,-0.796l0,-3.476c0,-0.419 -0.377,-0.796 -0.796,-0.796l-10.345,0l0,-6.868l12.397,0c0.461,0 0.796,-0.377 0.796,-0.796l0,-3.434c0,-0.419 -0.335,-0.796 -0.796,-0.796l-17.046,0c-0.46,0 -0.795,0.377 -0.795,0.796l0,27.725Z" style="fill:#edc1df;fill-rule:nonzero;stroke:#000;stroke-width:1.5px;"/><path d="M206.355,30.204c0,0.419 0.335,0.796 0.754,0.796l9.926,0c8.083,0 14.7,-6.575 14.7,-14.7c0,-8.042 -6.617,-14.617 -14.7,-14.617l-9.926,0c-0.419,0 -0.754,0.377 -0.754,0.796l0,27.725Zm5.402,-4.314l0,-19.139l4.775,0c5.445,0 9.423,4.104 9.423,9.549c0,5.486 -3.978,9.59 -9.423,9.59l-4.775,0Z" style="fill:#edc1df;fill-rule:nonzero;stroke:#000;stroke-width:1.5px;"/></g></svg>